<?xml version="1.0" standalone="yes"?><svg xmlns="http://www.w3.org/2000/svg" version="1.1" width="205" height="205" viewBox="0 0 205 205" shape-rendering="crispEdges"><rect x="0" y="0" width="205" height="205" fill="#ffffff"/><path fill="#000000" d="M20 20h5v5H20V20M25 20h5v5H25V20M30 20h5v5H30V20M35 20h5v5H35V20M40 20h5v5H40V20M45 20h5v5H45V20M50 20h5v5H50V20M65 20h5v5H65V20M70 20h5v5H70V20M80 20h5v5H80V20M90 20h5v5H90V20M100 20h5v5H100V20M110 20h5v5H110V20M115 20h5v5H115V20M120 20h5v5H120V20M125 20h5v5H125V20M130 20h5v5H130V20M135 20h5v5H135V20M150 20h5v5H150V20M155 20h5v5H155V20M160 20h5v5H160V20M165 20h5v5H165V20M170 20h5v5H170V20M175 20h5v5H175V20M180 20h5v5H180V20M20 25h5v5H20V25M50 25h5v5H50V25M80 25h5v5H80V25M95 25h5v5H95V25M100 25h5v5H100V25M110 25h5v5H110V25M140 25h5v5H140V25M150 25h5v5H150V25M180 25h5v5H180V25M20 30h5v5H20V30M30 30h5v5H30V30M35 30h5v5H35V30M40 30h5v5H40V30M50 30h5v5H50V30M60 30h5v5H60V30M70 30h5v5H70V30M90 30h5v5H90V30M95 30h5v5H95V30M115 30h5v5H115V30M120 30h5v5H120V30M125 30h5v5H125V30M130 30h5v5H130V30M135 30h5v5H135V30M150 30h5v5H150V30M160 30h5v5H160V30M165 30h5v5H165V30M170 30h5v5H170V30M180 30h5v5H180V30M20 35h5v5H20V35M30 35h5v5H30V35M35 35h5v5H35V35M40 35h5v5H40V35M50 35h5v5H50V35M60 35h5v5H60V35M95 35h5v5H95V35M110 35h5v5H110V35M115 35h5v5H115V35M130 35h5v5H130V35M135 35h5v5H135V35M140 35h5v5H140V35M150 35h5v5H150V35M160 35h5v5H160V35M165 35h5v5H165V35M170 35h5v5H170V35M180 35h5v5H180V35M20 40h5v5H20V40M30 40h5v5H30V40M35 40h5v5H35V40M40 40h5v5H40V40M50 40h5v5H50V40M60 40h5v5H60V40M65 40h5v5H65V40M70 40h5v5H70V40M75 40h5v5H75V40M90 40h5v5H90V40M95 40h5v5H95V40M100 40h5v5H100V40M120 40h5v5H120V40M135 40h5v5H135V40M150 40h5v5H150V40M160 40h5v5H160V40M165 40h5v5H165V40M170 40h5v5H170V40M180 40h5v5H180V40M20 45h5v5H20V45M50 45h5v5H50V45M60 45h5v5H60V45M65 45h5v5H65V45M75 45h5v5H75V45M90 45h5v5H90V45M115 45h5v5H115V45M150 45h5v5H150V45M180 45h5v5H180V45M20 50h5v5H20V50M25 50h5v5H25V50M30 50h5v5H30V50M35 50h5v5H35V50M40 50h5v5H40V50M45 50h5v5H45V50M50 50h5v5H50V50M60 50h5v5H60V50M70 50h5v5H70V50M80 50h5v5H80V50M90 50h5v5H90V50M100 50h5v5H100V50M110 50h5v5H110V50M120 50h5v5H120V50M130 50h5v5H130V50M140 50h5v5H140V50M150 50h5v5H150V50M155 50h5v5H155V50M160 50h5v5H160V50M165 50h5v5H165V50M170 50h5v5H170V50M175 50h5v5H175V50M180 50h5v5H180V50M60 55h5v5H60V55M65 55h5v5H65V55M70 55h5v5H70V55M75 55h5v5H75V55M90 55h5v5H90V55M100 55h5v5H100V55M115 55h5v5H115V55M120 55h5v5H120V55M125 55h5v5H125V55M135 55h5v5H135V55M140 55h5v5H140V55M20 60h5v5H20V60M30 60h5v5H30V60M35 60h5v5H35V60M40 60h5v5H40V60M45 60h5v5H45V60M50 60h5v5H50V60M70 60h5v5H70V60M85 60h5v5H85V60M90 60h5v5H90V60M105 60h5v5H105V60M115 60h5v5H115V60M130 60h5v5H130V60M140 60h5v5H140V60M150 60h5v5H150V60M155 60h5v5H155V60M160 60h5v5H160V60M165 60h5v5H165V60M170 60h5v5H170V60M25 65h5v5H25V65M55 65h5v5H55V65M85 65h5v5H85V65M90 65h5v5H90V65M100 65h5v5H100V65M105 65h5v5H105V65M115 65h5v5H115V65M120 65h5v5H120V65M125 65h5v5H125V65M135 65h5v5H135V65M150 65h5v5H150V65M155 65h5v5H155V65M165 65h5v5H165V65M170 65h5v5H170V65M180 65h5v5H180V65M20 70h5v5H20V70M25 70h5v5H25V70M35 70h5v5H35V70M40 70h5v5H40V70M45 70h5v5H45V70M50 70h5v5H50V70M70 70h5v5H70V70M85 70h5v5H85V70M90 70h5v5H90V70M95 70h5v5H95V70M100 70h5v5H100V70M105 70h5v5H105V70M120 70h5v5H120V70M125 70h5v5H125V70M145 70h5v5H145V70M150 70h5v5H150V70M160 70h5v5H160V70M170 70h5v5H170V70M175 70h5v5H175V70M25 75h5v5H25V75M35 75h5v5H35V75M45 75h5v5H45V75M60 75h5v5H60V75M65 75h5v5H65V75M70 75h5v5H70V75M75 75h5v5H75V75M85 75h5v5H85V75M95 75h5v5H95V75M100 75h5v5H100V75M105 75h5v5H105V75M110 75h5v5H110V75M115 75h5v5H115V75M120 75h5v5H120V75M125 75h5v5H125V75M130 75h5v5H130V75M140 75h5v5H140V75M145 75h5v5H145V75M160 75h5v5H160V75M165 75h5v5H165V75M170 75h5v5H170V75M175 75h5v5H175V75M35 80h5v5H35V80M40 80h5v5H40V80M50 80h5v5H50V80M65 80h5v5H65V80M75 80h5v5H75V80M90 80h5v5H90V80M100 80h5v5H100V80M115 80h5v5H115V80M120 80h5v5H120V80M130 80h5v5H130V80M135 80h5v5H135V80M145 80h5v5H145V80M155 80h5v5H155V80M160 80h5v5H160V80M165 80h5v5H165V80M175 80h5v5H175V80M180 80h5v5H180V80M20 85h5v5H20V85M25 85h5v5H25V85M30 85h5v5H30V85M45 85h5v5H45V85M60 85h5v5H60V85M70 85h5v5H70V85M75 85h5v5H75V85M85 85h5v5H85V85M95 85h5v5H95V85M110 85h5v5H110V85M130 85h5v5H130V85M135 85h5v5H135V85M150 85h5v5H150V85M155 85h5v5H155V85M170 85h5v5H170V85M175 85h5v5H175V85M180 85h5v5H180V85M25 90h5v5H25V90M45 90h5v5H45V90M50 90h5v5H50V90M60 90h5v5H60V90M80 90h5v5H80V90M95 90h5v5H95V90M100 90h5v5H100V90M120 90h5v5H120V90M125 90h5v5H125V90M140 90h5v5H140V90M145 90h5v5H145V90M150 90h5v5H150V90M155 90h5v5H155V90M160 90h5v5H160V90M165 90h5v5H165V90M170 90h5v5H170V90M175 90h5v5H175V90M20 95h5v5H20V95M25 95h5v5H25V95M35 95h5v5H35V95M45 95h5v5H45V95M65 95h5v5H65V95M80 95h5v5H80V95M90 95h5v5H90V95M95 95h5v5H95V95M110 95h5v5H110V95M125 95h5v5H125V95M130 95h5v5H130V95M145 95h5v5H145V95M150 95h5v5H150V95M160 95h5v5H160V95M165 95h5v5H165V95M170 95h5v5H170V95M20 100h5v5H20V100M30 100h5v5H30V100M35 100h5v5H35V100M40 100h5v5H40V100M45 100h5v5H45V100M50 100h5v5H50V100M55 100h5v5H55V100M60 100h5v5H60V100M70 100h5v5H70V100M75 100h5v5H75V100M85 100h5v5H85V100M95 100h5v5H95V100M105 100h5v5H105V100M140 100h5v5H140V100M145 100h5v5H145V100M155 100h5v5H155V100M160 100h5v5H160V100M165 100h5v5H165V100M180 100h5v5H180V100M20 105h5v5H20V105M35 105h5v5H35V105M40 105h5v5H40V105M65 105h5v5H65V105M70 105h5v5H70V105M115 105h5v5H115V105M125 105h5v5H125V105M135 105h5v5H135V105M145 105h5v5H145V105M150 105h5v5H150V105M155 105h5v5H155V105M165 105h5v5H165V105M170 105h5v5H170V105M180 105h5v5H180V105M25 110h5v5H25V110M30 110h5v5H30V110M35 110h5v5H35V110M40 110h5v5H40V110M45 110h5v5H45V110M50 110h5v5H50V110M55 110h5v5H55V110M60 110h5v5H60V110M65 110h5v5H65V110M95 110h5v5H95V110M100 110h5v5H100V110M110 110h5v5H110V110M120 110h5v5H120V110M125 110h5v5H125V110M145 110h5v5H145V110M150 110h5v5H150V110M155 110h5v5H155V110M160 110h5v5H160V110M170 110h5v5H170V110M175 110h5v5H175V110M30 115h5v5H30V115M35 115h5v5H35V115M40 115h5v5H40V115M55 115h5v5H55V115M70 115h5v5H70V115M80 115h5v5H80V115M90 115h5v5H90V115M120 115h5v5H120V115M125 115h5v5H125V115M155 115h5v5H155V115M160 115h5v5H160V115M165 115h5v5H165V115M170 115h5v5H170V115M175 115h5v5H175V115M180 115h5v5H180V115M25 120h5v5H25V120M30 120h5v5H30V120M50 120h5v5H50V120M75 120h5v5H75V120M80 120h5v5H80V120M90 120h5v5H90V120M110 120h5v5H110V120M115 120h5v5H115V120M130 120h5v5H130V120M140 120h5v5H140V120M145 120h5v5H145V120M155 120h5v5H155V120M160 120h5v5H160V120M165 120h5v5H165V120M175 120h5v5H175V120M180 120h5v5H180V120M20 125h5v5H20V125M25 125h5v5H25V125M40 125h5v5H40V125M45 125h5v5H45V125M60 125h5v5H60V125M65 125h5v5H65V125M70 125h5v5H70V125M90 125h5v5H90V125M95 125h5v5H95V125M100 125h5v5H100V125M120 125h5v5H120V125M135 125h5v5H135V125M150 125h5v5H150V125M165 125h5v5H165V125M170 125h5v5H170V125M180 125h5v5H180V125M20 130h5v5H20V130M30 130h5v5H30V130M50 130h5v5H50V130M75 130h5v5H75V130M80 130h5v5H80V130M90 130h5v5H90V130M105 130h5v5H105V130M115 130h5v5H115V130M130 130h5v5H130V130M140 130h5v5H140V130M160 130h5v5H160V130M170 130h5v5H170V130M175 130h5v5H175V130M20 135h5v5H20V135M35 135h5v5H35V135M45 135h5v5H45V135M60 135h5v5H60V135M70 135h5v5H70V135M75 135h5v5H75V135M90 135h5v5H90V135M100 135h5v5H100V135M115 135h5v5H115V135M120 135h5v5H120V135M125 135h5v5H125V135M135 135h5v5H135V135M145 135h5v5H145V135M150 135h5v5H150V135M160 135h5v5H160V135M165 135h5v5H165V135M170 135h5v5H170V135M175 135h5v5H175V135M20 140h5v5H20V140M30 140h5v5H30V140M35 140h5v5H35V140M40 140h5v5H40V140M45 140h5v5H45V140M50 140h5v5H50V140M55 140h5v5H55V140M60 140h5v5H60V140M75 140h5v5H75V140M80 140h5v5H80V140M105 140h5v5H105V140M115 140h5v5H115V140M130 140h5v5H130V140M135 140h5v5H135V140M140 140h5v5H140V140M145 140h5v5H145V140M150 140h5v5H150V140M155 140h5v5H155V140M160 140h5v5H160V140M60 145h5v5H60V145M70 145h5v5H70V145M75 145h5v5H75V145M90 145h5v5H90V145M100 145h5v5H100V145M105 145h5v5H105V145M110 145h5v5H110V145M115 145h5v5H115V145M120 145h5v5H120V145M125 145h5v5H125V145M140 145h5v5H140V145M160 145h5v5H160V145M170 145h5v5H170V145M180 145h5v5H180V145M20 150h5v5H20V150M25 150h5v5H25V150M30 150h5v5H30V150M35 150h5v5H35V150M40 150h5v5H40V150M45 150h5v5H45V150M50 150h5v5H50V150M75 150h5v5H75V150M85 150h5v5H85V150M95 150h5v5H95V150M105 150h5v5H105V150M120 150h5v5H120V150M125 150h5v5H125V150M130 150h5v5H130V150M135 150h5v5H135V150M140 150h5v5H140V150M150 150h5v5H150V150M160 150h5v5H160V150M170 150h5v5H170V150M175 150h5v5H175V150M20 155h5v5H20V155M50 155h5v5H50V155M60 155h5v5H60V155M75 155h5v5H75V155M105 155h5v5H105V155M110 155h5v5H110V155M115 155h5v5H115V155M120 155h5v5H120V155M125 155h5v5H125V155M130 155h5v5H130V155M135 155h5v5H135V155M140 155h5v5H140V155M160 155h5v5H160V155M165 155h5v5H165V155M170 155h5v5H170V155M20 160h5v5H20V160M30 160h5v5H30V160M35 160h5v5H35V160M40 160h5v5H40V160M50 160h5v5H50V160M60 160h5v5H60V160M70 160h5v5H70V160M75 160h5v5H75V160M85 160h5v5H85V160M95 160h5v5H95V160M100 160h5v5H100V160M115 160h5v5H115V160M140 160h5v5H140V160M145 160h5v5H145V160M150 160h5v5H150V160M155 160h5v5H155V160M160 160h5v5H160V160M165 160h5v5H165V160M175 160h5v5H175V160M20 165h5v5H20V165M30 165h5v5H30V165M35 165h5v5H35V165M40 165h5v5H40V165M50 165h5v5H50V165M60 165h5v5H60V165M70 165h5v5H70V165M95 165h5v5H95V165M105 165h5v5H105V165M110 165h5v5H110V165M125 165h5v5H125V165M140 165h5v5H140V165M145 165h5v5H145V165M160 165h5v5H160V165M175 165h5v5H175V165M180 165h5v5H180V165M20 170h5v5H20V170M30 170h5v5H30V170M35 170h5v5H35V170M40 170h5v5H40V170M50 170h5v5H50V170M60 170h5v5H60V170M65 170h5v5H65V170M80 170h5v5H80V170M85 170h5v5H85V170M95 170h5v5H95V170M100 170h5v5H100V170M105 170h5v5H105V170M120 170h5v5H120V170M135 170h5v5H135V170M140 170h5v5H140V170M145 170h5v5H145V170M150 170h5v5H150V170M155 170h5v5H155V170M165 170h5v5H165V170M170 170h5v5H170V170M20 175h5v5H20V175M50 175h5v5H50V175M70 175h5v5H70V175M75 175h5v5H75V175M85 175h5v5H85V175M90 175h5v5H90V175M95 175h5v5H95V175M115 175h5v5H115V175M120 175h5v5H120V175M125 175h5v5H125V175M130 175h5v5H130V175M160 175h5v5H160V175M165 175h5v5H165V175M170 175h5v5H170V175M20 180h5v5H20V180M25 180h5v5H25V180M30 180h5v5H30V180M35 180h5v5H35V180M40 180h5v5H40V180M45 180h5v5H45V180M50 180h5v5H50V180M60 180h5v5H60V180M65 180h5v5H65V180M70 180h5v5H70V180M95 180h5v5H95V180M100 180h5v5H100V180M105 180h5v5H105V180M115 180h5v5H115V180M130 180h5v5H130V180M135 180h5v5H135V180M140 180h5v5H140V180M145 180h5v5H145V180M155 180h5v5H155V180M175 180h5v5H175V180"/></svg>