<svg version="1.1" id="Layer_1" xmlns="http://www.w3.org/2000/svg" xmlns:xlink="http://www.w3.org/1999/xlink" x="0px" y="0px" enable-background="new 0 0 244.7 109.7" xml:space="preserve" viewBox="13.7 15 217.3 76.8"> <path fill="#222222" d="M71.4,91.8h-7.5c-0.1,0-0.1-0.1-0.1-0.1V53.5c0-0.1,0.1-0.1,0.1-0.1h7.5c0.1,0,0.1,0.1,0.1,0.1v2.2 &#9;c1.3-1.5,4-2.9,7-2.9c8.2,0,12.8,6.8,12.8,14.7s-4.6,14.6-12.8,14.6c-2.8,0-5.4-1.3-6.8-2.7c-0.1-0.1-0.2,0-0.2,0.1v12.2L71.4,91.8z &#9; M71.5,72c1,2,3,3.3,5.3,3.3c4.2,0,6.7-3.4,6.7-7.8c0-4.5-2.5-7.9-6.7-7.9c-2.3,0-4.3,1.4-5.3,3.2v0.1V72z"/> <path fill="#222222" d="M119.5,81.4H112c-0.1,0-0.1-0.1-0.1-0.1v-2.1c0-0.1-0.2-0.2-0.2-0.1c-1.6,1.6-4.2,2.9-7.3,2.9 &#9;c-6.3,0-9.9-4.1-9.9-10.4V53.5c0-0.1,0.1-0.1,0.1-0.1h7.5c0.1,0,0.1,0.1,0.1,0.1v16.6c0,2.9,1.4,5,4.5,5c2.4,0,4.4-1.4,5-3.9V53.5 &#9;c0-0.1,0.1-0.1,0.1-0.1h7.6c0.1,0,0.1,0.1,0.1,0.1v27.8C119.6,81.3,119.6,81.4,119.5,81.4z"/> <path fill="#222222" d="M132.5,91.8H125c-0.1,0-0.1-0.1-0.1-0.1V53.5c0-0.1,0.1-0.1,0.1-0.1h7.5c0.1,0,0.1,0.1,0.1,0.1v2.2 &#9;c1.3-1.5,4-2.9,7-2.9c8.2,0,12.8,6.8,12.8,14.7s-4.6,14.6-12.8,14.6c-2.8,0-5.4-1.3-6.8-2.7c-0.1-0.1-0.2,0-0.2,0.1v12.2 &#9;C132.6,91.7,132.5,91.8,132.5,91.8z M132.6,72c1,2,3,3.3,5.3,3.3c4.2,0,6.7-3.4,6.7-7.8c0-4.5-2.5-7.9-6.7-7.9 &#9;c-2.3,0-4.3,1.4-5.3,3.2v0.1V72z"/> <path fill="#222222" d="M163.5,91.8H156c-0.1,0-0.1-0.1-0.1-0.1V53.5c0-0.1,0.1-0.1,0.1-0.1h7.5c0.1,0,0.1,0.1,0.1,0.1v2.2 &#9;c1.3-1.5,4-2.9,7-2.9c8.2,0,12.8,6.8,12.8,14.7s-4.6,14.6-12.8,14.6c-2.8,0-5.4-1.3-6.8-2.7c-0.1-0.1-0.2,0-0.2,0.1v12.2 &#9;C163.7,91.7,163.6,91.8,163.5,91.8z M163.7,72c1,2,3,3.3,5.3,3.3c4.2,0,6.7-3.4,6.7-7.8c0-4.5-2.5-7.9-6.7-7.9 &#9;c-2.3,0-4.3,1.4-5.3,3.2v0.1V72z"/> <path fill="#222222" d="M211.3,72.2c0.1,0,0.2,0.1,0.1,0.2C210.3,78.3,206,82,199,82c-8.2,0-13.6-6-13.6-14.6 &#9;c0-7.4,4.3-13,10.5-14.4c8.1-1.7,15.7,4.8,15.7,13.1v2.7c0,0.1-0.1,0.1-0.1,0.1h-18.4c-0.1,0-0.2,0.1-0.1,0.2 &#9;c0.3,4.1,2.7,6.6,6.1,6.6c2.6,0,4.5-1.1,5.2-3.4c0-0.1,0.1-0.1,0.1-0.1L211.3,72.2z M193.3,64.3h10.5c0.1,0,0.2-0.1,0.1-0.2 &#9;c-0.1-2.9-1.9-5.1-5-5.1c-3,0-5.1,1.8-5.8,5.1C193.2,64.2,193.2,64.3,193.3,64.3z"/> <path fill="#222222" d="M216.7,59.6h-4c-0.1,0-0.1-0.1-0.1-0.1v-6c0-0.1,0.1-0.1,0.1-0.1h4c0.1,0,0.1-0.1,0.1-0.1V46 &#9;c0-0.1,0.1-0.1,0.1-0.1h7.4c0.1,0,0.1,0.1,0.1,0.1v7.2c0,0.1,0.1,0.1,0.1,0.1h5.9c0.1,0,0.1,0.1,0.1,0.1v6c0,0.1-0.1,0.1-0.1,0.1 &#9;h-5.9c-0.1,0-0.1,0.1-0.1,0.1v12.2c0,2.2,1.2,3.2,3.2,3.2c1.1,0,2.3-0.3,3.2-0.8c0.1-0.1,0.2,0,0.2,0.1v6.6c0,0.1,0,0.1-0.1,0.1 &#9;c-1.1,0.5-2.9,0.8-4.9,0.8c-5.7,0-9.3-2.8-9.3-9v-13C216.8,59.7,216.7,59.6,216.7,59.6L216.7,59.6z"/> <path fill="#FFAA1A" d="M52,53.2V35.8c0-0.1-0.1-0.1-0.1-0.1H38.5l-7.2-7.2v-0.1V15.1c0-0.1-0.1-0.1-0.1-0.1H13.8 &#9;c-0.1,0-0.1,0.1-0.1,0.1v17.4c0,0.1,0.1,0.1,0.1,0.1h13.3h0.1l7.2,7.2v9.4l-7.2,7.2h-0.1H13.8c-0.1,0-0.1,0.1-0.1,0.1v17.4 &#9;c0,0.1,0.1,0.1,0.1,0.1h17.4c0.1,0,0.1-0.1,0.1-0.1V60.6v-0.1l7.2-7.2h0.1h13.3C51.9,53.3,52,53.3,52,53.2z M19.7,20.8h5.6 &#9;c0.1,0,0.1,0.1,0.1,0.1v5.6c0,0.1-0.1,0.1-0.1,0.1h-5.6c-0.1,0-0.1-0.1-0.1-0.1v-5.6C19.5,20.9,19.6,20.8,19.7,20.8z M25.2,68.2 &#9;h-5.6c-0.1,0-0.1-0.1-0.1-0.1v-5.6c0-0.1,0.1-0.1,0.1-0.1h5.6c0.1,0,0.1,0.1,0.1,0.1v5.6C25.4,68.1,25.3,68.2,25.2,68.2z"/> </svg>