<?xml version="1.0" encoding="UTF-8" standalone="no"?>
<!-- Generator: Adobe Illustrator 16.0.0, SVG Export Plug-In . SVG Version: 6.00 Build 0)  -->

<svg
   xmlns:dc="http://purl.org/dc/elements/1.1/"
   xmlns:cc="http://creativecommons.org/ns#"
   xmlns:rdf="http://www.w3.org/1999/02/22-rdf-syntax-ns#"
   xmlns:svg="http://www.w3.org/2000/svg"
   xmlns="http://www.w3.org/2000/svg"
   xmlns:xlink="http://www.w3.org/1999/xlink"
   xmlns:sodipodi="http://sodipodi.sourceforge.net/DTD/sodipodi-0.dtd"
   xmlns:inkscape="http://www.inkscape.org/namespaces/inkscape"
   version="1.1"
   id="Layer_1"
   x="0px"
   y="0px"
   width="255.12px"
   height="141.73px"
   viewBox="23 19.58 208.799 103.14967"
   enable-background="new 0 0 255.12 141.73"
   xml:space="preserve"
   sodipodi:docname="logo.svg"
   inkscape:version="0.92.1 r"><metadata
     id="metadata5017"><rdf:RDF><cc:Work
         rdf:about=""><dc:format>image/svg+xml</dc:format><dc:type
           rdf:resource="http://purl.org/dc/dcmitype/StillImage" /><dc:title></dc:title></cc:Work></rdf:RDF></metadata><defs
     id="defs5015" /><sodipodi:namedview
     pagecolor="#ffffff"
     bordercolor="#666666"
     borderopacity="1"
     objecttolerance="10"
     gridtolerance="10"
     guidetolerance="10"
     inkscape:pageopacity="0"
     inkscape:pageshadow="2"
     inkscape:window-width="1920"
     inkscape:window-height="1016"
     id="namedview5013"
     showgrid="false"
     showguides="false"
     inkscape:zoom="3.976322"
     inkscape:cx="104.56"
     inkscape:cy="78.714717"
     inkscape:window-x="0"
     inkscape:window-y="27"
     inkscape:window-maximized="1"
     inkscape:current-layer="Layer_1" /><g
     id="g5010"><defs
       id="defs4993"><rect
         id="SVGID_1_"
         x="23"
         y="19.58"
         width="208.798"
         height="103.15" /></defs><clipPath
       id="SVGID_2_"><use
         xlink:href="#SVGID_1_"
         overflow="visible"
         id="use4995" /></clipPath><path
       clip-path="url(#SVGID_2_)"
       d="M27.55,94.484H23v27.59h4.55V94.484z M58.309,122.074h4.493v-16.186   c0-3.725-0.913-6.662-2.736-8.812c-1.824-2.15-4.369-3.227-7.632-3.227c-4.378,0-7.469,1.998-9.274,5.99l-0.518-5.299h-3.917   v27.533h4.55v-13.537c0.077-3.34,0.826-5.951,2.247-7.834c1.42-1.881,3.283-2.822,5.587-2.822c2.304,0,4.08,0.674,5.328,2.018   c1.247,1.344,1.872,3.34,1.872,5.99V122.074z M111.013,122.074h4.493v-16.186c0-3.725-0.903-6.662-2.707-8.812   c-1.806-2.15-4.359-3.227-7.661-3.227c-4.686,0-7.891,2.209-9.619,6.625c-0.73-2.074-1.901-3.695-3.514-4.867   c-1.613-1.172-3.61-1.758-5.99-1.758c-4.378,0-7.47,1.998-9.274,5.99l-0.518-5.299h-3.917v27.533h4.55v-13.537   c0.077-3.34,0.825-5.951,2.247-7.834c1.42-1.881,3.283-2.822,5.587-2.822c2.304,0,4.079,0.674,5.328,2.018   c1.247,1.344,1.872,3.34,1.872,5.99v16.186h4.493v-13.363c0-3.379,0.642-6.027,1.929-7.949c1.286-1.92,3.101-2.881,5.443-2.881   c2.342,0,4.138,0.674,5.386,2.018c1.247,1.344,1.872,3.34,1.872,5.99V122.074z M142.117,110.611c0,2.535-0.799,4.6-2.392,6.193   c-1.595,1.594-3.504,2.389-5.731,2.389c-3.916,0-5.875-1.729-5.875-5.184c0-1.574,0.634-2.727,1.901-3.455   c1.267-0.73,2.918-1.096,4.953-1.096C137.008,109.459,139.39,109.844,142.117,110.611 M142.692,122.074h3.916v-17.742   c0-3.531-0.96-6.162-2.88-7.891s-4.589-2.592-8.006-2.592c-1.613,0-3.11,0.154-4.493,0.461c-4.531,1-6.796,3.609-6.796,7.834h5.011   c0-1.689,0.604-2.928,1.813-3.715c1.211-0.787,2.804-1.182,4.781-1.182s3.485,0.539,4.521,1.613   c1.037,1.076,1.557,2.861,1.557,5.357v3.514c-2.689-0.998-5.512-1.498-8.468-1.498c-2.958,0-5.425,0.689-7.402,2.074   c-1.978,1.381-2.966,3.303-2.966,5.76s0.892,4.512,2.678,6.162s4.156,2.477,7.115,2.477c4.414,0,7.467-1.746,9.157-5.242   L142.692,122.074z M175.696,122.074h4.493v-16.186c0-3.725-0.912-6.662-2.736-8.812c-1.823-2.15-4.368-3.227-7.632-3.227   c-4.377,0-7.469,1.998-9.272,5.99l-0.52-5.299h-3.917v27.533h4.551v-13.537c0.076-3.34,0.825-5.951,2.246-7.834   c1.42-1.881,3.283-2.822,5.587-2.822c2.305,0,4.08,0.674,5.328,2.018s1.872,3.34,1.872,5.99V122.074z M204.151,121.268   l-0.634-3.227c-1.768,0.691-3.361,1.037-4.781,1.037c-2.612,0-3.917-1.4-3.917-4.205V97.996h8.641v-3.455h-8.641v-7.662h-4.492   v7.662h-4.436v3.455h4.436v16.936c0,1.344,0.21,2.496,0.634,3.457c0.807,1.957,2.188,3.244,4.146,3.857   C197.833,123.129,200.848,122.803,204.151,121.268 M227.306,110.611c0,2.535-0.797,4.6-2.391,6.193s-3.505,2.389-5.73,2.389   c-3.917,0-5.876-1.729-5.876-5.184c0-1.574,0.634-2.727,1.901-3.455c1.267-0.73,2.918-1.096,4.953-1.096   S224.578,109.844,227.306,110.611 M231.799,122.074v-17.742c0-3.531-0.96-6.162-2.88-7.891c-1.922-1.729-4.59-2.592-8.007-2.592   c-1.612,0-3.11,0.154-4.492,0.461c-4.532,1-6.798,3.609-6.798,7.834h5.012c0-1.689,0.604-2.928,1.814-3.715   c1.209-0.787,2.802-1.182,4.78-1.182c1.978,0,3.485,0.539,4.521,1.613c1.037,1.076,1.556,2.861,1.556,5.357v3.514   c-2.688-0.998-5.51-1.498-8.467-1.498s-5.425,0.689-7.402,2.074c-1.979,1.381-2.966,3.303-2.966,5.76s0.893,4.512,2.678,6.162   c1.786,1.65,4.157,2.477,7.114,2.477c4.415,0,7.468-1.746,9.158-5.242l0.461,4.609H231.799z"
       id="path4998" /><path
       clip-path="url(#SVGID_2_)"
       d="M134.402,19.58c0,0-6.802,18.647-12.915,26.58   c-6.112,7.933-26.108,21.223-26.108,21.223s26.422,4.347,38.048,3.626c11.627-0.721,26.654-5.111,26.654-5.111   s-9.092-22.467-13.457-30.076C142.262,28.214,134.402,19.58,134.402,19.58"
       id="path5000"
       fill="#009AA5" /><path
       clip-path="url(#SVGID_2_)"
       d="M100.997,34.34c0,0,34.509,24.059,44.094,27.067   c9.585,3.009,15.038,4.455,15.038,4.455s-17.611,6.72-37.584,5.064c-19.972-1.656-27.519-3.363-27.519-3.363   s5.06-4.734,5.932-9.989S100.997,34.34,100.997,34.34"
       id="path5002"
       fill="#40A3AD" /><path
       clip-path="url(#SVGID_2_)"
       d="M95.272,67.542c0,0-16.282,4.538-20.449,6.084   c-4.167,1.549,2.997-2.628,9.654-4.692c6.657-2.061,14.99-4.341,14.99-4.341L95.272,67.542z"
       id="path5004"
       fill="#009AA5" /><path
       clip-path="url(#SVGID_2_)"
       d="M120.437,47.392c-10.257-6.66-19.503-13.122-19.503-13.122   s0.839,18.061-0.033,23.34c-0.873,5.278-5.943,10.032-5.943,10.032S113.375,55.427,120.437,47.392"
       id="path5006"
       fill="#A6CBD1" /><path
       clip-path="url(#SVGID_2_)"
       d="M99.332,64.651c-0.258,0.071-1.082,0.297-2.264,0.628   c-1.119,1.408-2.051,2.298-2.136,2.378c0.004-0.002,0.011-0.004,0.014-0.005C95.146,67.519,96.846,66.389,99.332,64.651"
       id="path5008"
       fill="#65AEB8" /></g></svg>