<?xml version="1.0" encoding="UTF-8"?>
<svg xmlns="http://www.w3.org/2000/svg" width="151" height="27" viewBox="0.373047 0.243164 150.27495 26.513536" fill="none">
  <g id="IP_Fabric_Logo_Color 1" clip-path="url(#clip0_975_5424)">
    <g id="Group">
      <g id="Group_2">
        <path id="Vector" fill-rule="evenodd" clip-rule="evenodd" d="M20.7068 17.9593C20.7068 19.2971 19.4424 20.3511 18.0122 20.0268C17.2246 19.8444 16.582 19.2363 16.3954 18.466C16.0638 17.0674 17.1416 15.8309 18.5097 15.8309C19.7326 15.8106 20.7068 16.7836 20.7068 17.9593Z" fill="#8C989B"></path>
        <path id="Vector_2" fill-rule="evenodd" clip-rule="evenodd" d="M11.5452 9.06051C11.5452 10.3983 10.2808 11.4524 8.85057 11.1281C8.06293 10.9456 7.42038 10.3375 7.23383 9.56726C6.90219 8.16862 7.98002 6.93213 9.34804 6.93213C10.571 6.93213 11.5452 7.88483 11.5452 9.06051Z" fill="#264183"></path>
      </g>
      <path id="Vector_3" d="M27.5053 2.37154V24.6283C27.5053 25.804 26.5311 26.7567 25.3289 26.7567H11.7109L16.2295 22.3378C16.9135 22.6824 17.7012 22.8851 18.5303 22.8851C19.7325 22.8851 20.8518 22.4594 21.7223 21.7702C21.9711 21.5675 22.2198 21.3242 22.4271 21.081C23.2976 20.0472 23.7536 18.6891 23.5256 17.2094C23.2147 15.1215 21.6187 13.4797 19.4838 13.0945C18.2816 12.8715 17.1415 13.0742 16.1674 13.5607L13.8459 11.2905C14.1982 10.6215 14.4055 9.87154 14.4055 9.06073C14.4055 8.24992 14.1982 7.43911 13.8251 6.74992L20.4787 0.243164H25.3082C26.5311 0.243164 27.5053 1.19587 27.5053 2.37154Z" fill="#264183"></path>
      <path id="Vector_4" d="M13.4728 17.9594C13.4728 18.7702 13.6801 19.5202 14.0325 20.1891L7.29604 26.7567H2.57016C2.40434 26.7567 2.23852 26.7364 2.05198 26.6959C1.26433 26.5134 0.621777 25.9053 0.435229 25.1351C0.393774 24.9729 0.373047 24.7905 0.373047 24.6283V2.37154C0.373047 1.19587 1.34724 0.243164 2.54944 0.243164H16.0638L11.5866 4.62154C10.9234 4.29722 10.1564 4.11479 9.36879 4.11479C8.1666 4.11479 7.04731 4.52019 6.17675 5.22965C5.92802 5.43235 5.67929 5.65533 5.47202 5.91884C5.32692 6.081 5.32692 6.081 5.47202 5.91884C4.53928 7.03371 4.08327 8.5337 4.43564 10.1351C4.85019 12.0405 6.38403 13.5202 8.33242 13.8851C9.55534 14.1283 10.6954 13.9256 11.6695 13.4391L14.0325 15.7499C13.6801 16.4188 13.4728 17.1688 13.4728 17.9594Z" fill="#8C989B"></path>
    </g>
    <g id="Group_3">
      <path id="Vector_5" d="M44.3569 22.8855H40.9369C40.7503 22.8855 40.6052 22.7436 40.6052 22.5612V4.43956C40.6052 4.25713 40.7503 4.11523 40.9369 4.11523H44.3569C44.5435 4.11523 44.6885 4.25713 44.6885 4.43956V22.5612C44.6885 22.7436 44.5435 22.8855 44.3569 22.8855Z" fill="#264183"></path>
      <path id="Vector_6" d="M61.1255 10.1152C61.1255 11.8787 60.5659 13.3179 59.3844 14.372C58.2444 15.426 56.7106 15.9531 54.7414 15.9531H51.9018C51.7152 15.9531 51.5701 16.095 51.5701 16.2774V22.5612C51.5701 22.7436 51.425 22.8855 51.2385 22.8855H47.8185C47.6319 22.8855 47.4868 22.7436 47.4868 22.5612V4.43956C47.4868 4.25713 47.6319 4.11523 47.8185 4.11523H54.7414C56.7106 4.11523 58.2651 4.64226 59.3844 5.73686C60.5452 6.79091 61.1255 8.27064 61.1255 10.1152ZM57.0422 10.1152C57.0422 9.30442 56.8349 8.69632 56.3997 8.29091C55.9851 7.86523 55.3633 7.66253 54.5964 7.66253H51.9225C51.736 7.66253 51.5909 7.80442 51.5909 7.98686V12.0815C51.5909 12.2639 51.736 12.4058 51.9225 12.4058H54.5964C55.384 12.4058 55.9644 12.2233 56.3997 11.8179C56.8349 11.4125 57.0422 10.8652 57.0422 10.1152Z" fill="#264183"></path>
      <path id="Vector_7" d="M78.3915 12.7301V15.6287C78.3915 15.8112 78.2465 15.9531 78.0599 15.9531H73.4377C73.2511 15.9531 73.106 16.095 73.106 16.2774V22.5612C73.106 22.7436 72.9609 22.8855 72.7744 22.8855H69.3543C69.1678 22.8855 69.0227 22.7436 69.0227 22.5612V4.43956C69.0227 4.25713 69.1678 4.11523 69.3543 4.11523H81.0861C81.2727 4.11523 81.4178 4.25713 81.4178 4.43956V7.33821C81.4178 7.52064 81.2727 7.66253 81.0861 7.66253H73.4377C73.2511 7.66253 73.106 7.80442 73.106 7.98686V12.1017C73.106 12.2842 73.2511 12.426 73.4377 12.426H78.0599C78.2465 12.426 78.3915 12.5679 78.3915 12.7301Z" fill="#264183"></path>
      <path id="Vector_8" d="M133.651 22.8855H130.231C130.045 22.8855 129.899 22.7436 129.899 22.5612V4.43956C129.899 4.25713 130.045 4.11523 130.231 4.11523H133.651C133.838 4.11523 133.983 4.25713 133.983 4.43956V22.5612C133.983 22.7436 133.838 22.8855 133.651 22.8855Z" fill="#264183"></path>
      <path id="Vector_9" d="M124.365 15.4461C124.324 15.3447 124.344 15.2231 124.448 15.1623C124.842 14.9393 125.215 14.6758 125.547 14.3718C126.707 13.3177 127.267 11.8785 127.267 10.115C127.267 9.75013 127.246 9.40554 127.205 9.08121C127.018 7.70283 126.479 6.5677 125.547 5.71635C124.407 4.62175 122.873 4.09473 120.904 4.09473H113.981C113.794 4.09473 113.649 4.23662 113.649 4.41905V22.5407C113.649 22.7231 113.794 22.865 113.981 22.865H117.401C117.587 22.865 117.732 22.7231 117.732 22.5407V16.2569C117.732 16.0745 117.877 15.9326 118.064 15.9326H119.888C120.054 15.9326 120.22 16.0339 120.302 16.1961L123.412 22.6826C123.474 22.8042 123.577 22.865 123.702 22.865H127.64C127.889 22.865 128.034 22.6218 127.93 22.3988L124.365 15.4461ZM122.541 11.8177C122.106 12.2231 121.505 12.4055 120.738 12.4055H118.064C117.877 12.4055 117.732 12.2636 117.732 12.0812V7.98662C117.732 7.80419 117.877 7.66229 118.064 7.66229H120.738C121.525 7.66229 122.147 7.865 122.541 8.29067C122.873 8.59473 123.059 9.00013 123.142 9.54743C123.204 9.91229 123.204 9.91229 123.142 9.54743C123.163 9.72986 123.184 9.91229 123.184 10.115C123.184 10.865 122.976 11.4123 122.541 11.8177Z" fill="#264183"></path>
      <path id="Vector_10" d="M89.8123 4.11523H86.2057C86.0606 4.11523 85.9362 4.21659 85.8948 4.33821L80.0496 22.4598C79.9874 22.6625 80.1325 22.8855 80.3605 22.8855H83.8842C84.0293 22.8855 84.1536 22.7842 84.1951 22.6423L85.0657 19.5612C85.1071 19.4193 85.2315 19.3179 85.3766 19.3179H90.5999C90.745 19.3179 90.8694 19.4193 90.9108 19.5612L91.7814 22.6423C91.8228 22.7842 91.9472 22.8855 92.0923 22.8855H95.616C95.844 22.8855 95.9891 22.6828 95.9269 22.4598L90.0817 4.33821C90.0817 4.21659 89.9573 4.11523 89.8123 4.11523ZM86.2264 15.5882L87.8017 10.0544C87.8639 9.85172 88.1541 9.85172 88.2162 10.0544L89.7915 15.5882C89.833 15.7504 89.7086 15.9328 89.5221 15.9328H86.4544C86.3093 15.9328 86.1642 15.7706 86.2264 15.5882Z" fill="#264183"></path>
      <path id="Vector_11" d="M110.664 14.7163C110.353 14.1893 109.939 13.7839 109.421 13.4393C109.296 13.3582 109.296 13.1961 109.4 13.115C109.607 12.9123 109.897 12.6488 110.042 12.4663C110.146 12.3447 110.229 12.2028 110.312 12.0609C110.789 11.3109 111.017 10.4393 111.017 9.4258C111.017 7.7839 110.457 6.48661 109.317 5.55417C108.198 4.60147 106.685 4.13525 104.736 4.13525H97.9376C97.7511 4.13525 97.606 4.27715 97.606 4.45958V22.5812C97.606 22.7636 97.7511 22.9055 97.9376 22.9055H105.379C107.244 22.9055 108.737 22.4393 109.794 21.4461C110.851 20.4934 111.39 19.115 111.39 17.392C111.369 16.3582 111.12 15.4663 110.664 14.7163ZM101.689 7.98661C101.689 7.80417 101.834 7.66228 102.021 7.66228H104.674C105.441 7.66228 106.001 7.82444 106.374 8.14877C106.394 8.14877 106.394 8.16904 106.415 8.18931C106.747 8.5339 106.933 9.00012 106.933 9.60823C106.933 10.2974 106.747 10.7839 106.374 11.169C106.021 11.5136 105.462 11.6961 104.674 11.6961H102.021C101.834 11.6961 101.689 11.5542 101.689 11.3717V7.98661ZM106.705 18.7907C106.353 19.1555 105.793 19.338 105.006 19.338H102C101.814 19.338 101.669 19.1961 101.669 19.0136V15.4461C101.669 15.2636 101.814 15.1217 102 15.1217H105.006C105.773 15.1217 106.332 15.3042 106.726 15.6285C106.747 15.6488 106.747 15.6488 106.768 15.669C107.099 16.0339 107.286 16.5001 107.286 17.1488C107.286 17.8582 107.099 18.3853 106.705 18.7907Z" fill="#264183"></path>
      <path id="Vector_12" d="M145.88 18.7907C145.424 19.257 144.719 19.5002 143.766 19.5002C142.709 19.5002 141.942 19.2164 141.465 18.6083C140.989 18.0002 140.74 16.9664 140.74 15.5475V11.4732C140.74 10.0543 140.989 9.02047 141.465 8.41236C141.942 7.80425 142.709 7.52047 143.766 7.52047C144.719 7.52047 145.424 7.76371 145.88 8.22993C146.295 8.63533 146.544 9.2029 146.606 9.89209C146.626 10.0543 146.772 10.1961 146.937 10.1961H150.316C150.502 10.1961 150.648 10.0543 150.648 9.87182C150.585 8.00696 149.964 6.58804 148.782 5.53398C147.538 4.45966 145.839 3.89209 143.704 3.89209C139.019 3.89209 136.656 6.42587 136.656 11.4326V15.6083C136.656 20.6151 139.04 23.1488 143.704 23.1488C145.839 23.1488 147.538 22.6015 148.782 21.507C149.943 20.4732 150.565 19.034 150.648 17.1691C150.648 16.9867 150.502 16.8448 150.316 16.8448H146.937C146.772 16.8448 146.626 16.9664 146.606 17.1488C146.544 17.8178 146.295 18.3651 145.88 18.7907Z" fill="#264183"></path>
    </g>
  </g>
  <defs>
    <clipPath id="clip0_975_5424">
      <rect width="151" height="27" fill="white"></rect>
    </clipPath>
  </defs>
</svg>
