<?xml version="1.0" encoding="UTF-8"?>
<svg id="Layer_1" data-name="Layer 1" xmlns="http://www.w3.org/2000/svg" viewBox="55.11193 16.147568 401.7828 479.6947">
  <defs>
    <style>
      .cls-1 {
        fill: #0b1629;
      }

      .cls-2 {
        fill: #fedd14;
      }

      .cls-3 {
        fill: #fdfdfd;
      }
    </style>
  </defs>
  <g>
    <g>
      <path class="cls-1" d="M450.01,327.72c10.38-34.64,9.92-72.16-7.58-104.45-2.86-5.27-9.61-13.02-11.53-17.42-1.5-3.45-2.32-13.03-3.33-17.51-10.7-47.75-30.9-92.5-67.14-126.21C316.7,21.44,245.52-2.48,192.07,34.46c-13.72,9.48-23.74,21.3-34.83,33.48-6.31,6.93-14.2,11.11-12.32,22.14.7,4.12,3.77,7.18,6.81,9.68-7.7,2.89-15.5,5.87-22.53,10.18-5.47,3.35-12.11,8.05-14.51,14.13l9.83-2.89-1.16,11.86c-.07.5,1.08.35,1.15.29.27-.23,2.39-3.76,3.19-4.64,8.57-9.45,19.25-17.1,31.42-21.26,9.11-3.12,14.96-.65,24.16-1.31,37.03-2.67,52.29-31.75,90.31-28.93,35.09,2.6,65.14,35.89,79.03,65.98-.69.54-5.36-2.06-6.38-2.59-25.75-13.19-51.29-26.82-77.17-39.77-12.38-4.71-21.12-1.54-32.25,3.85-39.37,19.09-80.66,41.1-119.25,61.94-8.43,4.55-16.47,7.85-17.77,18.7-1.03,8.57.53,18.23-.28,26.93-64.11,58.61-57.1,159.63,10.02,213.09,56.84,45.28,115.74,79.14,191.76,68.58,39.87-5.54,89.25-27.89,112.23-62.02,3.32-4.93,12.93-19.46,7.42-24.47-6.49-5.89-12.43,5.78-15.94,9.58-46.2,50.17-108.24,50.03-169.78,30.25l-5.92-2.47c83.47,4.02,194.04-28.09,220.71-117.08ZM396.63,205.39c-1.89,33.17,5.45,67.89-8.03,99.12-21.24,49.19-72.33,67.22-121.67,75.45v-105.65c.9-4.4,6.32-7.26,9.83-9.27,38.19-21.92,78.89-39.85,117.12-61.77,2.04-1.13,2.95.01,2.76,2.13ZM133.01,179.75c39-18.98,76.92-41.92,115.96-60.6,1.7-.81,3.83-2.15,5.65-2.45,1.29-.22,2.57-.25,3.87-.09,41.24,19.92,81.49,42.09,122.31,62.93,4.47,3.03,5.96,6.39.95,9.86-6.9,4.78-18.94,10.09-26.81,14.29-29.02,15.49-59.62,32.86-89.15,46.89-2.09.99-4.97,2.57-7.24,2.65-3.7.13-10.12-3.79-13.62-5.54-35.22-17.59-72.77-36.98-107.09-56.16-5.09-2.84-12.18-6-4.81-11.78ZM190.94,372.87c-19.76-11.11-41.53-20.19-61.02-31.6-4.56-2.67-9.33-5.5-11.22-10.78-1.06-35.17-.76-70.75.05-105.94.07-3.02-.54-20.69.52-21.48.43-.32.86-.32,1.35-.16l122.38,64.07c2.29.75,5.98,5.12,5.98,7.33v106.23c-19.6.53-39.54-.92-58.04-7.66Z"/>
      <g>
        <path class="cls-2" d="M254.62,116.7c1.29-.22,2.57-.25,3.87-.09,41.24,19.92,81.49,42.09,122.31,62.93,4.47,3.03,5.96,6.39.95,9.86-6.9,4.78-18.94,10.09-26.81,14.29-29.02,15.49-59.62,32.86-89.15,46.89-2.09.99-4.97,2.57-7.24,2.65-3.7.13-10.12-3.79-13.62-5.54-35.22-17.59-72.77-36.98-107.09-56.16-5.09-2.84-12.18-6-4.81-11.78,39-18.98,76.92-41.92,115.96-60.6,1.7-.81,3.83-2.15,5.65-2.45Z"/>
        <g>
          <path class="cls-3" d="M266.93,274.3c.9-4.4,6.32-7.26,9.83-9.27,38.19-21.92,78.89-39.85,117.12-61.77,2.04-1.13,2.95.01,2.76,2.13-1.89,33.17,5.45,67.89-8.03,99.12-21.24,49.19-72.33,67.22-121.67,75.45v-105.65Z"/>
          <path class="cls-2" d="M243,266.97l-122.38-64.07c-.49-.16-.91-.16-1.35.16-1.07.79-.45,18.47-.52,21.48-.81,35.19-1.11,70.78-.05,105.94,1.89,5.28,6.66,8.11,11.22,10.78,19.49,11.42,41.27,20.49,61.02,31.6,18.5,6.74,38.44,8.19,58.04,7.66v-106.23c0-2.22-3.69-6.59-5.98-7.33Z"/>
        </g>
      </g>
    </g>
    <ellipse class="cls-1" cx="158.37" cy="280.3" rx="6.77" ry="32.42"/>
    <ellipse class="cls-1" cx="194.54" cy="299.22" rx="6.77" ry="32.42"/>
    <path class="cls-3" d="M181.56,54.57c2.96-8.16,13.17-10.67,20.92-9.35,1.95.33,6.95,1.1,4.75,3.79-7.05,5-14.6,9.48-21.74,14.46-3.22-.48-4.87-6.31-3.93-8.9Z"/>
  </g>
  <g>
    <path class="cls-1" d="M186.42,191.38v-7.5h-5.35v-4.69l5.63-.24.81-6.49h5.21v6.49h8.95v4.94h-8.95v7.42c0,3.23,1.36,4.45,4.46,4.45,1.59,0,2.94-.32,4.19-.76l1.14,4.56c-1.88.56-4.11,1.15-6.94,1.15-6.76,0-9.16-3.75-9.16-9.31Z"/>
    <path class="cls-1" d="M206.65,189.58c0-7.07,5.23-11.14,10.83-11.14s10.83,4.07,10.83,11.14-5.23,11.12-10.83,11.12-10.83-4.07-10.83-11.12ZM221.86,189.58c0-3.68-1.48-6.06-4.38-6.06s-4.38,2.38-4.38,6.06,1.48,6.03,4.38,6.03,4.38-2.36,4.38-6.03Z"/>
    <path class="cls-1" d="M233.83,179.19l5.82-.24h13.38v4.94h-19.2v-4.69ZM239.44,178.4c0-4.87,2.84-8.71,9.5-8.71,2.42,0,4.64.54,6.42,1.14l-1.21,4.63c-1.34-.51-2.82-.83-4.44-.83-2.7,0-3.99,1.17-3.99,3.74v21.82h-6.29v-21.78Z"/>
    <path class="cls-1" d="M258.65,192.06v-13.11h6.3v12.3c0,2.81.75,4.08,3.09,4.08,1.56,0,2.67-.56,4.12-2.42v-13.96h6.3v21.23h-5.15l-.45-3.05h-.17c-1.88,2.16-4.1,3.56-7.16,3.56-4.83,0-6.88-3.28-6.88-8.64Z"/>
    <path class="cls-1" d="M284.77,178.95h5.13l.45,2.16h.16c1.71-1.56,4.05-2.67,6.33-2.67,5.3,0,8.51,4.24,8.51,10.8,0,7.28-4.45,11.46-9.21,11.46-1.86,0-3.71-.83-5.22-2.29h-.15l.29,3.44v6.22h-6.3v-29.11ZM298.9,189.3c0-3.81-1.25-5.7-3.92-5.7-1.35,0-2.59.57-3.92,1.97v8.57c1.18,1.04,2.53,1.41,3.64,1.41,2.32,0,4.2-1.85,4.2-6.24Z"/>
    <path class="cls-1" d="M310.23,208.05l1.13-4.8c.56.17,1.12.27,1.64.27,2.45,0,3.77-1.13,4.46-2.77l.41-1.11-9.18-20.69h6.25l3.57,9.12c.75,1.99,1.43,4.15,2.1,6.37h.17c.57-2.12,1.29-4.31,1.95-6.37l3.1-9.12h5.96l-8.37,21.46c-2.07,5.31-4.59,8.07-9.96,8.07-1.23,0-2.32-.17-3.23-.43Z"/>
  </g>
</svg>