<svg xmlns="http://www.w3.org/2000/svg" viewBox="0 0 436.54 238.11"><defs><style>.cls-1{fill:#2e3542;}.cls-2{fill:#5589ff;}</style></defs><g id="Layer_2" data-name="Layer 2"><g id="Layer_1-2" data-name="Layer 1"><path class="cls-1" d="M181.42,110.55h5.3a46.15,46.15,0,0,0,.37-5.67,45.36,45.36,0,1,0-3.31,17H164.39A28.33,28.33,0,0,1,114,110.55h67.46Zm-39.69-34a28.39,28.39,0,0,1,27,19.84H114.69A28.39,28.39,0,0,1,141.73,76.54Z"/><path class="cls-1" d="M243.78,79.37v-17H218.27V36.85H198.43v68h0a45.35,45.35,0,0,0,45.35,45.36v-17c-14.09,0-25.51-12.69-25.51-28.35V79.37Z"/><path class="cls-1" d="M42.52,59.53A42.52,42.52,0,0,0,0,102.05V147.4H19.84V102.05C19.84,88,30,76.55,42.5,76.54h0C55.05,76.55,65.2,88,65.2,102.05V147.4H85V102.05A42.52,42.52,0,0,0,42.52,59.53Z"/><path class="cls-1" d="M371.34,85c0-4.7,4.16-8.5,11.34-8.5S394,80.34,394,85h19.84c0-14.09-14-25.51-31.18-25.51-16.71,0-30.35,10.75-31.15,24.26,0,.41,0,.83,0,1.25,0,0,0-.33,0,0,0,25.82,48.24,25.57,48.19,36.85,0,6.26-7.61,11.34-17,11.34s-17-5.08-17-11.34H345.83c0,15.66,16.5,28.35,36.85,28.35,17.47,0,32.1-9.36,35.89-21.91a19.09,19.09,0,0,0,1-6.44C419.53,96.84,371.24,99.74,371.34,85Z"/><circle class="cls-2" cx="425.2" cy="158.74" r="11.34"/><path class="cls-2" d="M328.82,45.35a22.67,22.67,0,1,0-12.71-3.89l-8.19,20a45.54,45.54,0,0,0-26.3,0l-5.74-14.06a14.16,14.16,0,1,0-9.42,3.6,15.1,15.1,0,0,0,1.66-.1l5.63,13.79a45.35,45.35,0,0,0-.06,80.31L256.1,188a25.52,25.52,0,1,0,7.73,3.56l17.72-43.27a45.35,45.35,0,0,0,26.31.06l6.85,16.78A19.83,19.83,0,1,0,326,161.57a20.09,20.09,0,0,0-3.4.32l-6.84-16.78a45.34,45.34,0,0,0,.05-80.43l8.13-19.86A22.64,22.64,0,0,0,328.82,45.35ZM326,172.91a8.51,8.51,0,1,1-8.5,8.51A8.52,8.52,0,0,1,326,172.91Zm-2.83-68A28.35,28.35,0,1,1,294.8,76.54,28.38,28.38,0,0,1,323.15,104.88Zm-5.67-82.2A11.34,11.34,0,1,1,328.82,34,11.36,11.36,0,0,1,317.48,22.68Z"/></g></g></svg>