<?xml version="1.0" encoding="UTF-8"?>
<svg id="Ebene_2" data-name="Ebene 2" xmlns="http://www.w3.org/2000/svg" viewBox="0 0 94.43 119.22">
  <defs>
    <style>
      .cls-1 {
        fill: #010101;
      }
    </style>
  </defs>
  <g id="Ebene_1-2" data-name="Ebene 1">
    <path class="cls-1" d="M4.37,47.21l13.42-13.42h58.86l13.41,13.42-42.84,42.85L4.37,47.21ZM47.22,4.37l26.34,26.34H20.87L47.22,4.37ZM47.22,0L0,47.21l47.22,47.22,47.21-47.22L47.22,0Z"/>
    <path class="cls-1" d="M83.93,118.92v-9.21c0-.68-.04-1.38-.05-1.96,2.05,3.77,4.48,7.11,7.52,11.17h.85v-12.57h-.85v9.63c0,.68.02,1.27.07,1.72-2.91-3.95-5.18-7.24-7.54-11.35h-.83v12.57h.83ZM78.87,118.92h.85v-12.57h-.85v12.57ZM68.44,106.41h-2.35c.1.94.22,1.8.37,2.64-.37,2.37-1.36,5.46-2.57,7.85-1.51-3.16-2.5-6.27-2.89-10.49h-2.47c.5,4.81,1.51,8.2,4.01,12.52h2.45c1.06-2,1.9-4.1,2.45-6.05.67,1.98,1.56,3.9,2.65,6.05h2.52c2.32-4.32,3.49-7.7,4.01-12.52h-2.47c-.3,4.22-1.34,7.33-2.89,10.49-1.41-3.16-2.4-6.27-2.79-10.49M47.86,112.65c0-2.69,1.14-4.44,3.31-4.44s3.31,1.75,3.31,4.44-1.06,4.47-3.31,4.47-3.31-1.75-3.31-4.47M57.05,112.65c0-3.9-2.18-6.54-5.89-6.54s-5.86,2.64-5.86,6.54,2.2,6.57,5.86,6.57,5.89-2.64,5.89-6.57M37.41,107.29v11.63h2.5v-10.07c.69-.37,1.63-.64,2.87-.64.4,0,.87.05,1.24.17l.35-2.1c-.44-.1-1.06-.17-1.76-.17-1.9,0-3.91.47-5.19,1.18M28.48,107.29v11.63h2.5v-10.07c.69-.37,1.63-.64,2.87-.64.4,0,.87.05,1.24.17l.35-2.1c-.44-.1-1.06-.17-1.76-.17-1.9,0-3.91.47-5.19,1.18M25.15,118.08v-7.09c0-3.14-1.71-4.89-5.09-4.89-1.46,0-3.04.3-4.06.72l.5,2c.96-.4,2.15-.62,3.31-.62,1.95,0,2.89.94,2.89,2.67v1.04c-.77-.17-1.78-.27-2.62-.27-2.82,0-4.87,1.26-4.87,3.83,0,2.17,1.63,3.75,4.87,3.75,2.32,0,4.03-.54,5.07-1.14M20.31,117.34c-1.66,0-2.6-.67-2.6-1.98,0-1.53,1.14-2.07,2.67-2.07.87,0,1.63.12,2.32.3v3.23c-.47.27-1.26.52-2.4.52M4.69,118.92v-10.07c.84-.42,1.85-.64,2.89-.64,1.88,0,2.79,1.04,2.79,2.84v7.88h2.5v-8.05c0-3.01-1.83-4.76-5.29-4.76-1.9,0-3.86.44-5.39,1.16v11.65h2.5Z"/>
  </g>
</svg>