<svg width="720" height="655" xmlns="http://www.w3.org/2000/svg" xmlns:xlink="http://www.w3.org/1999/xlink" xml:space="preserve" overflow="hidden"><g transform="translate(-146 -55)"><g><g><g><g><path d="M277.338 168.998 285.44 168.998C285.806 166.123 285.995 163.229 286.005 160.331 286.014 122.034 254.975 90.982 216.678 90.9738 178.382 90.9657 147.329 122.005 147.321 160.301 147.313 198.598 178.352 229.65 216.649 229.658 244.91 229.664 270.348 212.518 280.945 186.319L251.304 186.319C236.925 205.433 209.774 209.271 190.66 194.893 182.224 188.547 176.397 179.339 174.272 168.998L277.399 168.998ZM216.663 117.022C235.557 117.07 252.249 129.336 257.938 147.352L175.327 147.352C181.019 129.308 197.743 117.03 216.663 117.007Z" fill="#2E3542" fill-rule="nonzero" fill-opacity="1" transform="matrix(1.00097 0 0 1 185.506 55)"/><path d="M372.668 121.333 372.668 95.3454 333.671 95.3454 333.671 56.3328 303.341 56.3328 303.341 160.285C303.333 198.573 334.364 229.618 372.652 229.627 372.658 229.627 372.663 229.627 372.668 229.627L372.668 203.639C351.128 203.639 333.671 184.24 333.671 160.3L333.671 121.333Z" fill="#2E3542" fill-rule="nonzero" fill-opacity="1" transform="matrix(1.00097 0 0 1 185.506 55)"/><path d="M65.0005 91.0038C29.1017 91.0038 6.99786e-07 120.106 6.99786e-07 156.004L0 225.331 30.3295 225.331 30.3295 156.004C30.3295 134.526 45.8612 117.022 64.97 117.007 84.1552 117.022 99.6716 134.526 99.6716 156.004L99.6716 225.331 129.94 225.331 129.94 156.004C129.94 120.129 100.875 91.0376 65.0005 91.0038Z" fill="#2E3542" fill-rule="nonzero" fill-opacity="1" transform="matrix(1.00097 0 0 1 185.506 55)"/><path d="M567.669 129.94C567.669 122.755 574.029 116.946 585.005 116.946 595.981 116.946 602.31 122.816 602.31 129.94L632.639 129.94C632.639 108.401 611.238 90.9427 584.974 90.9427 559.43 90.9427 538.578 107.376 537.355 128.029 537.355 128.656 537.355 129.298 537.355 129.94 537.355 129.94 537.355 129.435 537.355 129.94 537.355 169.411 611.1 169.029 611.024 186.273 611.024 195.842 599.39 203.608 585.036 203.608 570.681 203.608 559.048 195.842 559.048 186.273L528.672 186.273C528.672 210.212 553.896 229.612 585.005 229.612 611.711 229.612 634.076 215.303 639.87 196.118 640.94 192.948 641.457 189.618 641.399 186.273 641.338 148.04 567.517 152.473 567.669 129.94Z" fill="#2E3542" fill-rule="nonzero" fill-opacity="1" transform="matrix(1.00097 0 0 1 185.506 55)"/><path d="M667.341 242.667C667.341 252.241 659.58 260.002 650.006 260.002 640.431 260.002 632.67 252.241 632.67 242.667 632.67 233.093 640.431 225.331 650.006 225.331 659.58 225.331 667.341 233.093 667.341 242.667Z" fill="#5589FF" fill-rule="nonzero" fill-opacity="1" transform="matrix(1.00097 0 0 1 185.506 55)"/><path d="M502.669 69.3268C521.809 69.3167 537.316 53.7926 537.306 34.6528 537.296 15.5129 521.772 0.00520874 502.632 0.0152931 483.493 0.0253774 467.985 15.5495 467.995 34.6893 468.001 46.1899 473.712 56.9383 483.239 63.3801L470.719 93.9542C457.609 90.0002 443.624 90.0002 430.514 93.9542L421.739 72.4606C430.655 64.4961 431.426 50.812 423.461 41.8964 415.497 32.9808 401.813 32.2098 392.897 40.1744 383.981 48.139 383.21 61.8231 391.175 70.7387 395.287 75.3412 401.167 77.9699 407.339 77.964 408.187 77.9597 409.034 77.9086 409.876 77.8111L418.483 98.892C384.568 116.661 371.478 158.559 389.247 192.474 395.775 204.935 405.94 215.115 418.391 221.662L391.501 287.397C370.702 281.773 349.282 294.075 343.659 314.874 338.035 335.674 350.337 357.093 371.136 362.717 391.936 368.341 413.355 356.039 418.979 335.239 423.312 319.213 417.029 302.201 403.318 292.839L430.407 226.692C443.51 230.696 457.506 230.728 470.627 226.783L481.099 252.435C467.362 262.006 463.986 280.901 473.557 294.637 483.128 308.374 502.023 311.75 515.759 302.179 529.496 292.608 532.872 273.713 523.301 259.977 517.618 251.821 508.298 246.97 498.358 246.993 496.615 247.008 494.876 247.172 493.16 247.482L482.704 221.83C516.668 204.173 529.886 162.325 512.229 128.361 505.669 115.745 495.389 105.452 482.78 98.8767L495.209 68.5166C497.659 69.0562 500.16 69.3279 502.669 69.3268ZM498.358 264.328C505.543 264.32 511.374 270.138 511.383 277.322 511.391 284.507 505.573 290.339 498.389 290.347 491.204 290.355 485.372 284.538 485.364 277.353 485.364 277.348 485.364 277.343 485.364 277.338 485.372 270.162 491.183 264.345 498.358 264.328ZM494.032 160.376C494.015 184.312 474.598 203.702 450.662 203.685 426.727 203.668 407.337 184.251 407.354 160.315 407.371 136.404 426.751 117.024 450.662 117.007 474.581 117.032 493.967 136.412 494.001 160.331ZM485.364 34.7169C485.322 25.1428 493.049 17.3473 502.623 17.3051 512.197 17.2629 519.992 24.99 520.035 34.5641 520.077 44.1381 512.35 51.9336 502.776 51.9758 502.74 51.976 502.704 51.976 502.669 51.976 493.114 51.9592 485.367 44.2263 485.333 34.671Z" fill="#5589FF" fill-rule="nonzero" fill-opacity="1" transform="matrix(1.00097 0 0 1 185.506 55)"/></g></g></g><text fill="#5489FF" fill-opacity="1" font-family="Open Sans Medium,Open Sans Medium_MSFontService,sans-serif" font-style="normal" font-variant="normal" font-weight="500" font-stretch="normal" font-size="183" text-anchor="start" direction="ltr" writing-mode="lr-tb" unicode-bidi="normal" text-decoration="none" transform="matrix(1 0 0 1 258.671 553)">fabric</text></g></g></svg>