<?xml version="1.0" encoding="UTF-8"?>
<svg width="200" height="200" viewBox="0 0 200 200" xmlns="http://www.w3.org/2000/svg">
  <defs>
    <style>
      .text { font-family: 'Arial', sans-serif; font-weight: bold; fill: #1946a7; }
      .accent { fill: #00c8ff; }
      .base { fill: #2563eb; }
    </style>
  </defs>
  
  <!-- Background circle -->
  <circle cx="100" cy="100" r="95" fill="#f8fafc" stroke="#e2e8f0" stroke-width="2"/>
  
  <!-- Network nodes -->
  <circle cx="60" cy="60" r="8" class="accent"/>
  <circle cx="140" cy="60" r="8" class="base"/>
  <circle cx="100" cy="100" r="10" class="text"/>
  <circle cx="60" cy="140" r="8" class="base"/>
  <circle cx="140" cy="140" r="8" class="accent"/>
  
  <!-- Network connections -->
  <line x1="60" y1="60" x2="100" y2="100" stroke="#94a3b8" stroke-width="2"/>
  <line x1="140" y1="60" x2="100" y2="100" stroke="#94a3b8" stroke-width="2"/>
  <line x1="60" y1="140" x2="100" y2="100" stroke="#94a3b8" stroke-width="2"/>
  <line x1="140" y1="140" x2="100" y2="100" stroke="#94a3b8" stroke-width="2"/>
  
  <!-- Export arrows -->
  <path d="M 120 100 L 150 80 L 145 85 L 155 85 L 155 75 L 150 80 Z" class="accent"/>
  <path d="M 120 100 L 150 120 L 145 115 L 155 115 L 155 125 L 150 120 Z" class="accent"/>
  
  <!-- Text -->
  <text x="100" y="170" text-anchor="middle" font-size="32" class="text">nrx</text>
  <text x="100" y="185" text-anchor="middle" font-size="12" fill="#64748b">netreplica exporter</text>
</svg>