<?xml version="1.0" encoding="utf-8"?>
<svg xmlns="http://www.w3.org/2000/svg" viewBox="244.308 24.059 392.534 392.534" width="392.534px" height="392.534px">
  <defs>
    <style>@import url(https://fonts.googleapis.com/css2?family=Advent+Pro%3Aital%2Cwght%400%2C100..900%3B1%2C100..900&amp;display=swap);</style>
  </defs>
  <g transform="matrix(1, 0, 0, 1, 0, 1.4210854715202004e-14)">
    <path style="fill:#ffc10d" d="M 356.276 373.021 C 344.122 356.084 336.947 335.397 336.947 313.029 C 336.947 255.946 383.363 209.401 440.575 209.401 C 485.763 209.401 522.482 172.682 522.482 127.623 C 522.482 82.564 485.827 45.91 440.704 45.91 L 440.639 45.91 C 344.38 45.845 266.094 124.132 266.094 220.326 C 266.094 285.942 302.554 343.219 356.276 373.021"/>
    <path style="fill:#56ace0" d="M 615.055 220.326 C 615.055 154.71 578.659 97.562 525.002 67.696 C 537.026 84.633 544.137 105.256 544.137 127.559 C 544.137 184.642 497.721 231.187 440.509 231.187 C 395.321 231.187 358.602 267.906 358.602 312.965 C 358.602 358.024 395.321 394.743 440.444 394.743 L 440.509 394.743 C 536.769 394.806 615.055 316.52 615.055 220.326"/>
    <path style="fill: rgb(231, 37, 100);" d="M 429.649 151.348 C 447.039 135.38 463.524 115.599 463.524 107.13 C 463.524 99.696 457.512 93.684 450.078 93.684 C 445.488 93.684 441.351 96.011 438.765 99.761 C 434.434 106.355 424.866 106.355 420.535 99.761 C 418.078 95.882 413.812 93.684 409.222 93.684 C 401.788 93.684 395.776 99.696 395.776 107.13 C 395.839 116.439 413.746 136.802 429.649 151.348 M 451.565 289.303 C 434.11 305.271 417.626 325.052 417.626 333.521 C 417.626 340.955 423.638 346.967 431.072 346.967 C 435.662 346.967 439.799 344.64 442.385 340.89 C 446.716 334.296 456.284 334.296 460.615 340.89 C 463.136 344.769 467.338 346.967 471.928 346.967 C 479.362 346.967 485.374 340.955 485.374 333.521 C 485.31 324.148 467.468 303.849 451.565 289.303"/>
    <path style="fill:#194f82" d="M 440.575 24.059 C 332.292 24.059 244.308 112.043 244.308 220.326 C 244.308 328.609 332.292 416.593 440.575 416.593 C 548.858 416.593 636.842 328.609 636.842 220.326 C 636.842 112.043 548.857 24.059 440.575 24.059 M 266.094 220.326 C 266.094 124.132 344.381 45.845 440.575 45.845 L 440.64 45.845 C 485.699 45.845 522.418 82.564 522.418 127.623 C 522.418 172.746 485.699 209.401 440.511 209.401 C 383.428 209.401 336.883 255.817 336.883 313.029 C 336.883 335.461 344.059 356.084 356.212 373.021 C 302.554 343.219 266.094 285.942 266.094 220.326 M 440.575 394.806 L 440.51 394.806 C 395.451 394.806 358.732 358.087 358.732 313.028 C 358.732 267.905 395.451 231.25 440.639 231.25 C 497.722 231.25 544.267 184.834 544.267 127.622 C 544.267 105.319 537.156 84.632 525.132 67.759 C 578.659 97.496 615.055 154.708 615.055 220.325 C 615.055 316.52 536.769 394.806 440.575 394.806"/>
    <path style="fill:#194f82" d="M 422.732 174.168 C 426.805 177.465 432.688 177.465 436.696 174.103 C 448.138 164.535 485.375 131.307 485.375 107.129 C 485.31 87.67 469.537 71.832 450.078 71.832 C 442.765 71.832 435.631 74.09 429.65 78.297 C 423.767 74.095 416.656 71.832 409.222 71.832 C 389.763 71.832 373.925 87.67 373.925 107.129 C 373.989 132.536 414.522 167.445 422.732 174.168 M 409.221 93.683 C 413.811 93.683 417.948 96.01 420.534 99.76 C 424.865 106.354 434.433 106.354 438.764 99.76 C 441.285 95.881 445.487 93.683 450.077 93.683 C 457.511 93.683 463.523 99.695 463.523 107.129 C 463.523 115.468 447.038 135.315 429.584 151.347 C 413.746 136.802 395.839 116.503 395.839 107.129 C 395.775 99.695 401.787 93.683 409.221 93.683 M 458.417 266.483 C 454.344 263.186 448.461 263.186 444.453 266.548 C 433.011 276.116 395.774 309.344 395.774 333.522 C 395.774 352.981 411.612 368.819 431.071 368.819 C 438.384 368.82 445.518 366.562 451.499 362.354 C 457.382 366.556 464.493 368.819 471.927 368.819 C 491.386 368.819 507.224 352.981 507.224 333.522 C 507.161 308.116 466.563 273.206 458.417 266.483 M 471.864 346.968 C 467.274 346.968 463.137 344.641 460.551 340.891 C 456.22 334.297 446.652 334.297 442.321 340.891 C 439.864 344.77 435.598 346.968 431.008 346.968 C 423.574 346.968 417.562 340.956 417.562 333.522 C 417.562 325.183 434.047 305.336 451.501 289.304 C 467.404 303.785 485.376 324.148 485.376 333.522 C 485.31 340.956 479.298 346.968 471.864 346.968"/>
  </g>
</svg>