<?xml version="1.0" encoding="UTF-8"?>
<svg id="Layer_1" data-name="Layer 1" xmlns="http://www.w3.org/2000/svg" width="307.18" height="121.93" viewBox="0 0 307.18 121.93">
  <defs>
    <style>
      .cls-1 {
        fill: #000;
      }

      .cls-1, .cls-2 {
        stroke-width: 0px;
      }
    </style>
  </defs>
  <path class="cls-1" d="M32.78,55.2c0,2.04-.43,3.92-1.3,5.65-.86,1.73-2.07,3.19-3.61,4.4s-3.38,2.15-5.51,2.83-4.46,1.01-6.99,1.01c-3.03,0-5.74-.41-8.15-1.24-2.41-.83-4.81-2.2-7.22-4.11l3.98-6.47c1.91,1.6,3.63,2.77,5.18,3.51,1.54.74,3.11,1.11,4.72,1.11,1.98,0,3.56-.5,4.77-1.53s1.8-2.4,1.8-4.13c0-.74-.11-1.44-.33-2.09s-.61-1.31-1.2-2c-.58-.68-1.38-1.42-2.41-2.22-1.01-.8-2.32-1.79-3.93-2.97-1.23-.87-2.44-1.76-3.6-2.68-1.18-.93-2.23-1.91-3.19-2.97-.95-1.05-1.72-2.22-2.31-3.52-.58-1.3-.88-2.78-.88-4.44,0-1.91.4-3.67,1.2-5.24.8-1.58,1.89-2.92,3.28-4.02,1.38-1.12,3.04-1.98,4.99-2.59,1.94-.61,4.04-.93,6.33-.93,2.41,0,4.73.33,6.98.96,2.25.65,4.33,1.58,6.25,2.81l-3.61,5.82c-2.47-1.73-5.06-2.59-7.78-2.59-1.66,0-3.04.43-4.12,1.3-1.09.87-1.62,1.95-1.62,3.25s.47,2.35,1.43,3.34c.95.99,2.59,2.38,4.93,4.17,2.35,1.73,4.31,3.25,5.86,4.55,1.55,1.3,2.77,2.52,3.67,3.67.9,1.15,1.52,2.3,1.86,3.48.34,1.18.51,2.47.51,3.89h.03ZM86.67,43.82c0,3.64-.55,6.99-1.68,10.05-1.12,3.06-2.66,5.72-4.65,8.01s-4.33,4.06-7.06,5.32c-2.72,1.26-5.66,1.89-8.83,1.89-1.42,0-2.75-.12-3.99-.37-1.24-.25-2.42-.67-3.53-1.25s-2.21-1.34-3.3-2.27c-1.09-.93-2.21-2.07-3.39-3.43v29.35h-11.9V21.69h11.9l.06,6.76c2.17-2.71,4.52-4.71,7.04-5.97,2.54-1.27,5.48-1.89,8.82-1.89,3.03,0,5.8.57,8.29,1.71,2.51,1.14,4.67,2.73,6.49,4.77s3.23,4.47,4.22,7.32c.99,2.84,1.48,5.99,1.48,9.44h.02ZM73.73,44.3c0-5.07-1.02-9.07-3.08-12.01-2.05-2.94-4.84-4.4-8.39-4.4-3.73,0-6.69,1.56-8.86,4.68s-3.27,7.34-3.27,12.65,1.08,9.27,3.21,12.24,5.09,4.45,8.82,4.45c2.23,0,4.09-.57,5.55-1.71,1.46-1.15,2.64-2.6,3.54-4.36.9-1.76,1.54-3.68,1.91-5.74.37-2.07.56-4,.56-5.8,0,0-.01,0-.01,0ZM91.96,67.97h12.21V.01h-12.21v67.95ZM156.33,67.99V21.63h-12.21v24.95c0,2.22-.09,3.94-.28,5.15-.18,1.21-.5,2.3-.93,3.3-1.73,3.83-4.89,5.75-9.49,5.75-3.59,0-6.11-1.3-7.54-3.9-.56-.98-.95-2.1-1.17-3.34s-.33-3.03-.33-5.39v-26.52h-12.21v26.34c0,1.79.02,3.31.05,4.55.03,1.24.11,2.33.24,3.3.12.96.27,1.81.42,2.55s.39,1.45.7,2.13c1.12,2.85,2.92,5,5.43,6.45,2.51,1.45,5.58,2.17,9.22,2.17,3.28,0,6.15-.57,8.63-1.71,2.48-1.15,4.88-3.01,7.24-5.61l.03,6.2h12.21v-.02h-.01ZM209,67.97v-26.28c0-1.79-.02-3.32-.05-4.58-.03-1.27-.1-2.35-.24-3.29-.12-.92-.28-1.74-.46-2.45-.18-.71-.4-1.4-.65-2.09-1.12-2.77-2.92-4.91-5.43-6.43-2.51-1.52-5.58-2.27-9.24-2.27-3.28,0-6.15.57-8.63,1.72-2.48,1.15-4.88,3.02-7.24,5.61l-.02-6.2h-12.32v46.26h12.32v-24.97c0-2.16.08-3.84.24-5.04s.45-2.32.89-3.38c.8-1.85,2.03-3.26,3.68-4.21s3.61-1.43,5.91-1.43c3.59,0,6.11,1.3,7.54,3.88.55.98.94,2.1,1.16,3.33s.33,3.02.33,5.37v26.46h12.21ZM259.57,64.92l-18.61-23.14,15.74-16.85-9.26-3.98-16.38,18.97h-1.3V.01h-12.32v67.95h12.32v-24.62l18.42,25.55,11.39-3.98h.01ZM307.17,48.31v-7.58l-37.03-18.58v8.32l28.7,13.97-28.7,14.15v8.14l37.03-18.4s0-.02,0-.02ZM70.85,101.14h-2.68c.14-1.37.79-2.43,1.95-3.18,1.03-.69,2.34-1.02,3.91-1.02,1.87,0,3.32.49,4.31,1.47.84.84,1.26,1.92,1.26,3.26v9.33h-2.08l-.32-1.86c-1.08,1.51-2.59,2.26-4.58,2.26-1.56,0-2.77-.42-3.66-1.26-.72-.7-1.08-1.59-1.08-2.65,0-1.35.46-2.4,1.39-3.12.82-.65,2.09-1.13,3.79-1.42l3.99-.69v-.69c0-.89-.31-1.57-.92-2.03-.54-.4-1.29-.6-2.23-.6-1.85,0-2.88.74-3.07,2.21,0,0,.01,0,.01,0ZM73.24,109.26c1.08,0,2-.35,2.78-1.05.7-.65,1.05-1.39,1.05-2.23v-1.76l-3.39.6c-1.25.22-2.1.53-2.55.97-.37.35-.55.82-.55,1.42,0,.67.23,1.18.69,1.53s1.12.52,1.97.52h0ZM113.83,111.01h4.98v-19.9h-4.98v19.9ZM143.88,101.06c0,6.41,4.9,10.31,10.5,10.31,2.21,0,3.91-.53,4.54-.71v-5.34c-.22.11-1.84,1.05-4.18,1.05-3.32,0-5.46-2.35-5.46-5.31s2.23-5.31,5.46-5.31c2.38,0,3.98.97,4.18,1.06v-5.34c-.47-.14-2.2-.71-4.54-.71-6.06,0-10.5,4.35-10.5,10.29h0ZM91.96,101.06c0,6.41,4.9,10.31,10.49,10.31,2.22,0,3.92-.53,4.55-.71v-5.34c-.23.11-1.84,1.05-4.18,1.05-3.32,0-5.46-2.35-5.46-5.31s2.23-5.31,5.46-5.31c2.38,0,3.97.97,4.18,1.06v-5.34c-.47-.14-2.2-.71-4.55-.71-6.05,0-10.49,4.35-10.49,10.29h0ZM174.58,90.77c-6.06,0-10.41,4.61-10.41,10.29s4.35,10.31,10.41,10.31,10.41-4.62,10.41-10.31-4.35-10.29-10.41-10.29ZM174.58,106.3c-2.96,0-5.15-2.34-5.15-5.24s2.19-5.23,5.15-5.23,5.15,2.34,5.15,5.23-2.2,5.24-5.15,5.24ZM134.36,99l-1.37-.44c-.82-.27-2.28-.69-2.28-1.89,0-.96,1.08-1.64,3.08-1.64,1.71,0,3.82.58,3.89.61v-4.25c-.15-.04-2.43-.63-4.84-.63-4.59,0-7.35,2.5-7.35,6.23,0,3.3,2.32,4.93,5.08,5.82.31.1.77.25,1.06.35,1.23.39,2.21.97,2.21,1.98,0,1.14-1.14,1.86-3.61,1.86-2.17,0-4.26-.62-4.7-.74v4.59c.25.05,2.72.54,5.37.54,3.81,0,8.16-1.68,8.16-6.69,0-2.42-1.47-4.66-4.7-5.69h.01ZM206.62,106.61h2.76c-.2,1.47-.9,2.65-2.08,3.55-1.08.82-2.38,1.24-3.91,1.24-2.02,0-3.61-.7-4.81-2.08-1.11-1.28-1.66-2.96-1.66-5.05,0-2.42.67-4.29,2-5.62,1.14-1.14,2.62-1.71,4.44-1.71,1.68,0,3.06.45,4.16,1.34.96.79,1.55,1.82,1.76,3.1h-2.78c-.17-.74-.53-1.31-1.06-1.71-.53-.4-1.21-.6-2.01-.6-1.24,0-2.2.49-2.87,1.47-.63.91-.94,2.18-.94,3.81s.42,2.99,1.26,3.86c.67.71,1.53,1.05,2.58,1.05.91,0,1.66-.27,2.23-.79.51-.46.82-1.08.94-1.86h-.01ZM211.3,104.16c0-2.5.75-4.39,2.23-5.67,1.19-1.03,2.7-1.55,4.52-1.55,2.12,0,3.79.68,5,2.03,1.16,1.26,1.73,3,1.73,5.2,0,2.47-.73,4.35-2.18,5.65-1.19,1.05-2.71,1.58-4.57,1.58-2.12,0-3.79-.7-5.02-2.1-1.14-1.28-1.71-2.99-1.71-5.13h0ZM213.93,104.16c0,1.75.45,3.09,1.34,4.02.74.77,1.67,1.16,2.82,1.16,1.33,0,2.35-.5,3.07-1.49.67-.91.99-2.14.99-3.68,0-1.78-.44-3.13-1.31-4.04-.72-.76-1.65-1.14-2.78-1.14-1.31,0-2.33.5-3.07,1.49-.7.91-1.05,2.14-1.05,3.68h0ZM230.17,111h-2.52v-13.67h2.08l.27,1.61c.93-1.33,2.26-2,4.02-2,1.9,0,3.25.72,4.02,2.16.91-1.43,2.39-2.16,4.44-2.16,1.53,0,2.7.46,3.52,1.39.74.86,1.11,2.04,1.11,3.52v9.14h-2.52v-8.96c0-1.97-.89-2.94-2.65-2.94-1.05,0-1.89.41-2.52,1.23-.51.67-.76,1.44-.76,2.34v8.33h-2.52v-8.96c0-1.97-.88-2.94-2.65-2.94-.98,0-1.79.39-2.45,1.16-.56.65-.84,1.42-.84,2.33v8.41h-.04,0ZM250.95,97.33h2.08l.4,1.78c1.12-1.45,2.66-2.18,4.63-2.18s3.48.7,4.57,2.1c.96,1.26,1.44,2.94,1.44,5.02,0,2.47-.66,4.36-1.97,5.67-1.11,1.11-2.52,1.66-4.23,1.66-1.95,0-3.41-.72-4.39-2.16v6.49h-2.52v-18.4h0v.02h-.01ZM261.43,104.01c0-1.72-.43-3-1.29-3.86-.69-.7-1.58-1.05-2.68-1.05-1.28,0-2.29.46-3.05,1.39-.72.89-1.08,2.07-1.08,3.52,0,1.75.43,3.09,1.29,4.02.72.81,1.67,1.21,2.84,1.21,1.31,0,2.31-.48,3-1.44.65-.89.97-2.15.97-3.79h0ZM268.97,101.14h-2.68c.14-1.37.79-2.43,1.95-3.18,1.03-.69,2.34-1.02,3.91-1.02,1.87,0,3.32.49,4.31,1.47.84.84,1.26,1.92,1.26,3.26v9.33h-2.08l-.32-1.86c-1.08,1.51-2.59,2.26-4.58,2.26-1.56,0-2.77-.42-3.66-1.26-.72-.7-1.08-1.59-1.08-2.65,0-1.35.46-2.4,1.39-3.12.82-.65,2.09-1.13,3.79-1.42l3.99-.69v-.69c0-.89-.31-1.57-.92-2.03-.54-.4-1.29-.6-2.23-.6-1.85,0-2.88.74-3.07,2.21h.01ZM271.36,109.26c1.08,0,2-.35,2.78-1.05.7-.65,1.05-1.39,1.05-2.23v-1.76l-3.39.6c-1.25.22-2.1.53-2.55.97-.37.35-.55.82-.55,1.42,0,.67.23,1.18.69,1.53s1.12.52,1.97.52h0ZM283.88,111h-2.52v-13.67h2.08l.29,1.73c1.01-1.42,2.41-2.13,4.16-2.13,1.61,0,2.85.5,3.71,1.49.76.89,1.13,2.11,1.13,3.66v8.91h-2.52v-8.89c0-2.02-.97-3.02-2.92-3.02-1.01,0-1.84.35-2.5,1.05-.59.63-.89,1.43-.89,2.42v8.44h-.01ZM307.17,97.33l-4.76,13.85c-.63,1.84-1.24,3.09-1.81,3.76-.69.79-1.57,1.18-2.65,1.18-.46,0-.99-.08-1.63-.24v-2.05c.49.12.93.18,1.31.18.54,0,.96-.18,1.26-.56s.68-1.2,1.13-2.46h-.82l-5.02-13.67h2.73l3.86,11.61,3.86-11.61h2.54,0Z"/>
</svg>