<svg width="172" height="44" viewBox="0 0 172 44" fill="none" xmlns="http://www.w3.org/2000/svg">
<path d="M55.6612 13.0643V15.1644H61.7724V31.3341H64.0737V15.1644H70.1849V13.0643H55.6612Z" fill="white"/>
<path d="M70.6607 24.746C70.6607 28.7353 73.3059 31.4916 77.353 31.4916C80.3676 31.4916 82.8029 29.6287 83.3319 26.9511H81.1364C80.6868 28.6836 78.9921 29.5753 77.1943 29.5753C74.6814 29.5753 73.0149 27.8428 72.9355 25.3498V25.166H83.4104C83.4369 24.851 83.4633 24.536 83.4633 24.2472C83.3575 20.2833 80.7644 17.8945 77.062 17.8945C73.2529 17.8945 70.6607 20.6246 70.6607 24.746ZM73.0678 23.3809C73.2794 21.2021 75.1046 19.7846 77.0885 19.7846C79.2302 19.7846 80.924 21.0709 81.1356 23.3809H73.0678Z" fill="white"/>
<path d="M102.384 17.8945C99.977 17.8945 98.5221 18.997 97.7021 20.4408C96.935 18.7345 95.3214 17.8945 93.4434 17.8945C91.3537 17.8945 90.2163 18.9183 89.5021 19.8896L89.3177 18.052H87.333V31.3341H89.5021V24.3785C89.5021 21.7009 90.8511 19.8633 93.0731 19.8633C95.1363 19.8633 96.3266 21.2284 96.3266 23.8535V31.3341H98.4957V24.2735C98.4957 21.5434 99.8712 19.8633 102.12 19.8633C104.156 19.8633 105.32 21.2284 105.32 23.8535V31.3341H107.489V23.7222C107.489 19.4958 105.188 17.8945 102.384 17.8945Z" fill="white"/>
<path d="M118.256 17.8945C115.981 17.8945 114.526 18.9708 113.627 20.2046L113.443 18.052H111.458V36.5843H113.627V29.2866C114.447 30.5729 115.981 31.4916 118.256 31.4916C121.879 31.4916 124.737 28.7353 124.737 24.746C124.737 20.3883 121.879 17.8945 118.256 17.8945ZM118.044 29.5753C115.399 29.5753 113.6 27.5277 113.6 24.6935C113.6 21.8321 115.399 19.8108 118.044 19.8108C120.609 19.8108 122.515 21.8321 122.515 24.746C122.515 27.554 120.609 29.5753 118.044 29.5753Z" fill="white"/>
<path d="M134.504 31.4916C138.445 31.4916 141.196 28.709 141.196 24.746C141.196 20.6771 138.445 17.8945 134.504 17.8945C130.562 17.8945 127.811 20.6771 127.811 24.746C127.811 28.709 130.562 31.4916 134.504 31.4916ZM134.504 29.5753C131.832 29.5753 130.033 27.5015 130.033 24.746C130.033 21.8846 131.832 19.8108 134.504 19.8108C137.175 19.8108 138.974 21.8846 138.974 24.746C138.974 27.5015 137.175 29.5753 134.504 29.5753Z" fill="white"/>
<path d="M150.998 18.052C148.591 18.052 147.346 19.0495 146.711 20.0733L146.527 18.052H144.542V31.3341H146.711V24.6147C146.711 22.4884 147.691 20.1521 150.522 20.1521H151.606V18.052H150.998Z" fill="white"/>
<path d="M166.092 29.2595C165.537 29.2595 165.193 29.0503 165.193 28.394V22.7247C165.193 19.6008 163.316 17.8945 159.877 17.8945C156.623 17.8945 154.481 19.4433 154.163 22.0684H156.332C156.597 20.7034 157.867 19.8108 159.771 19.8108C161.887 19.8108 163.024 20.8609 163.024 22.5934V23.5122H159.163C155.618 23.5122 153.74 24.9027 153.74 27.5802C153.74 30.0216 155.75 31.4916 158.713 31.4916C161.041 31.4916 162.283 30.4679 163.13 29.2603C163.156 30.5729 163.765 31.3341 165.563 31.3341H166.754V29.2595H166.092ZM163.024 25.8739C163.024 28.1053 161.57 29.6541 158.872 29.6541C157.073 29.6541 155.936 28.7615 155.936 27.449C155.936 25.9264 157.02 25.3235 158.951 25.3235H163.024V25.8739Z" fill="white"/>
<path d="M169.831 13.0643V31.3341H172V13.0643H169.831Z" fill="white"/>
<path d="M29.261 14.4612C28.2363 6.85604 25.6521 0.5 21.6645 0.5C17.6881 0.5 15.0928 6.85604 14.068 14.4612C6.40468 15.4782 0 18.0427 0 22C0 25.9463 6.40468 28.5218 14.068 29.5388C15.0928 37.144 17.6769 43.5 21.6645 43.5C25.641 43.5 28.2363 37.144 29.261 29.5388C36.9244 28.5218 43.3291 25.9573 43.3291 22C43.3291 18.0427 36.9244 15.4671 29.261 14.4612ZM13.823 27.3059C6.48265 26.2558 2.19429 23.846 2.19429 21.9889C2.19429 20.1319 6.47151 17.7221 13.823 16.672C13.6559 18.4296 13.5779 20.2203 13.5779 21.9889C13.5779 23.7576 13.6559 25.5594 13.823 27.3059ZM21.6645 2.66658C23.5358 2.66658 25.964 6.91131 27.0222 14.2069C25.2511 14.0411 23.4467 13.9638 21.6645 13.9638C19.8824 13.9638 18.0779 14.0522 16.3069 14.2069C17.365 6.92237 19.7932 2.66658 21.6645 2.66658ZM29.5061 27.3059C29.1496 27.3612 27.6571 27.527 27.2895 27.5712C27.2561 27.947 27.0779 29.4172 27.0222 29.771C25.964 37.0555 23.5358 41.3113 21.6645 41.3113C19.7932 41.3113 17.365 37.0666 16.3069 29.771C16.2512 29.4172 16.0841 27.936 16.0395 27.5712C15.8725 25.8468 15.7611 23.9897 15.7611 21.9889C15.7611 19.9882 15.8613 18.1422 16.0395 16.4067C17.7772 16.2409 19.6484 16.1303 21.6645 16.1303C23.6806 16.1303 25.5408 16.2298 27.2895 16.4067C27.6682 16.4398 29.1496 16.6167 29.5061 16.672C36.8464 17.7221 41.1348 20.1319 41.1348 21.9889C41.1348 23.846 36.8464 26.2558 29.5061 27.3059Z" fill="white"/>
</svg>
