<?xml version="1.0" encoding="UTF-8"?>
<svg id="Layer_1" data-name="Layer 1" xmlns="http://www.w3.org/2000/svg" xmlns:xlink="http://www.w3.org/1999/xlink" viewBox="0 0 100 100">
  <defs>
    <style>
      .cls-1 {
        fill: none;
      }

      .cls-2 {
        clip-path: url(#clippath);
      }

      .cls-3 {
        fill: #00a8fe;
      }

      .cls-4 {
        fill: #0092de;
      }

      .cls-5 {
        fill: #fefefe;
      }

      .cls-6 {
        fill: #e5e5e5;
      }

      .cls-7 {
        fill: #e5e4e5;
      }

      .cls-8 {
        fill: #171d27;
      }

      .cls-9 {
        fill: #161d26;
      }

      .cls-10 {
        fill: #161d27;
      }

      .cls-11 {
        fill: #5d44ab;
      }
    </style>
    <clipPath id="clippath">
      <rect class="cls-1" x="23.48" y="16.32" width="52.56" height="52.56"/>
    </clipPath>
  </defs>
  <g id="Group_25404" data-name="Group 25404">
    <g class="cls-2">
      <g id="Group_8671" data-name="Group 8671">
        <path id="Path_32607" data-name="Path 32607" class="cls-11" d="m76.04,43.45c-.05.27-.06.55-.04.83v.05c-.01,2-.33,3.99-.96,5.89-1.05,3.47-2.8,6.68-5.14,9.44-2.17,2.56-4.81,4.68-7.79,6.24-2.8,1.5-5.85,2.46-9,2.84-1.61.15-3.23.18-4.85.11-1.32-.03-2.63-.18-3.92-.45-8.75-1.84-15.98-7.99-19.2-16.34-.81-2.02-1.34-4.15-1.57-6.31-.11-1.59-.14-3.18-.08-4.77.1-3.1.82-6.16,2.1-8.98,1.09-2.52,2.58-4.85,4.4-6.9,1.94-2.2,4.24-4.05,6.79-5.49,2.84-1.62,5.96-2.68,9.2-3.13.67-.09,1.36-.12,2.04-.1h.05c.3.02.6,0,.9-.04h1.58c.3.05.6.06.9.04h.05v.03c.19,0,.37.01.55.03,5.9.49,11.46,3,15.74,7.09,4.84,4.51,7.76,10.71,8.16,17.31h.02v.06c-.02.28,0,.56.04.83v1.73Z"/>
        <path id="Path_32608" data-name="Path 32608" class="cls-5" d="m56.81,29.64c.33.22.63.48.91.76l-.65.03c.24.26.43.47.64.69,1.52,1.6,2.43,3.68,2.58,5.88.07.77.3,1.52.69,2.19.76,1.28,1.36,2.64,1.81,4.06.61,1.82,0,3.82-1.49,5.01-.07.06-.14.12-.21.18-.1.2-.25.37-.44.49-1.09.79-2.32,1.34-3.63,1.64,1.13-.22,2.23-.53,3.3-.94.22-.1.41-.3.69-.24-.08,1.62-.3,3.23-.64,4.82l-.64-.87c0,1.71-.18,3.41-.56,5.07-.04,0-.07,0-.1-.02q-.55-.34-.65.32c-.13.83-.25,1.67-.4,2.5-.21,1.35-1.48,2.27-2.82,2.05-.96-.15-1.74-.85-2-1.79-.25-.9-.48-1.81-.7-2.72-.06-.26-.12-.34-.41-.26-1.23.37-2.55.37-3.78,0-.27-.08-.33,0-.38.24-.21.87-.43,1.74-.67,2.6-.28,1.34-1.59,2.19-2.93,1.91-1.04-.22-1.82-1.07-1.94-2.13-.17-.99-.32-2-.48-3,0-.01-.01-.02-.05-.06l-.59.4c-.39-1.67-.58-3.39-.57-5.11l-.64.85c-.28-1.24-.47-2.5-.57-3.77-.07-.58-.02-.62.51-.52,1.2.2,2.42.26,3.64.18-1.29.05-2.57-.18-3.77-.67-.23-.06-.43-.22-.54-.43-1.39-.75-2.39-2.07-2.74-3.6-.16-.89-.04-1.8.32-2.62.66-1.51,1.49-2.94,2.49-4.26.25-.34.41-.73.46-1.14.35-2.51,1.5-4.85,3.27-6.66.06-.07.12-.14.19-.22-.18-.13-.37-.02-.57-.1.33-.35.7-.67,1.11-.93.25-.02.32.2.43.35.41.61.86,1.2,1.34,1.76.99,1.03,2.35,1.61,3.78,1.63.58.03,1.15.09,1.74.1,1.44.03,2.83-.55,3.83-1.59.67-.58,1.26-1.25,1.74-1.99.02-.03.06-.05.1-.06"/>
        <path id="Path_32609" data-name="Path 32609" class="cls-3" d="m56.81,29.64c-.08.35-.27.66-.53.91-.45.44-.87.92-1.33,1.36-.94.94-2.21,1.48-3.54,1.51-.98.02-1.95-.04-2.91-.2-1.45-.22-2.74-1.04-3.56-2.26-.36-.5-.73-.99-1.09-1.49-.19-.38-.25-.81-.17-1.22,0-.21.15-.39.35-.42.26-.03.31-.18.37-.37.28-1.07.79-2.07,1.49-2.93.72-.85,1.68-1.47,2.75-1.76.25-.07.45-.14.55-.42.11-.27.39-.42.68-.37.6.04,1.21.09,1.81.14.3.03.55.26.6.55.03.17.14.3.3.36,1.89.85,3.22,2.6,3.52,4.65.04.21.06.42.09.62,0,.2.12.37.31.44.44.17.29.59.31.93"/>
        <path id="Path_32610" data-name="Path 32610" class="cls-7" d="m39.33,48.99c.84.44,1.74.74,2.68.87.71.14,1.43.19,2.15.15,0,.16-.09.15-.17.16-1.41.16-2.83.11-4.23-.16-.47-.12-.17.29-.28.42-.06-.48-.11-.96-.16-1.44"/>
        <path id="Path_32611" data-name="Path 32611" class="cls-6" d="m61.01,49.38c-.99.57-2.08.95-3.21,1.11-.35.07-.7.11-1.05.13,1.57-.45,3.05-1.19,4.34-2.19,0,.32-.02.63-.08.95"/>
        <path id="Path_32612" data-name="Path 32612" class="cls-6" d="m40.51,42.49c.13.48.36.93.68,1.31.12.14.29.23.41.37.1.12.18.1.29,0,.77-.68,1.86-.86,2.81-.48.89.25,1.73.64,2.5,1.15.12.08.25.15.27.32,0,.12.05.26-.03.34-.12.12-.21-.04-.3-.1-1-.66-2.12-1.12-3.29-1.37-.58-.1-1.17,0-1.67.32-.16.1-.13.16,0,.24.81.47,1.7.78,2.63.91.5.07.99.05,1.49.08,0,.2-.23.24-.26.44,1.37.08,2.74-.05,4.07-.36-.75-.25-1.49-.47-2.21-.78-.12-.05-.26-.08-.27-.25,0-.12-.05-.25.04-.34s.19.02.29.05c.98.41,2.01.72,3.06.92.61.15,1.22.25,1.85.3.42,0,.44-.04.25-.42.19-.08.36.02.53.03.55-.03,1.1-.09,1.64-.17.75,0,1.48-.16,2.15-.5.79-.35,1.41-.99,1.75-1.78.01-.06.07-.11.13-.1-.16,1.13-.88,2.1-1.91,2.58-.3.14-.24.21-.06.39.46.38.78.9.9,1.49-.19-.3-.4-.58-.64-.84-.65-.65-1.58-.92-2.47-.72-1.05.17-2.07.52-3.01,1.04-.06.03-.11.1-.17.05-.11-.09-.07-.22-.06-.33.04-.38-.04-.45-.42-.36-1.3.32-2.62.52-3.96.61-1.91.14-3.82-.32-5.46-1.31-.92-.53-1.53-1.47-1.63-2.53-.03-.08,0-.18.06-.23"/>
        <path id="Path_32613" data-name="Path 32613" class="cls-10" d="m50.4,40.03c-1.98,0-3.92-.59-5.57-1.69-.07-.04-.14-.08-.2-.13-.17-.14-.25-.31-.11-.51.09-.16.3-.21.46-.12.02.01.04.03.06.04.49.35,1.02.65,1.58.89,2.89,1.31,6.25,1.04,8.9-.71.08-.05.16-.09.23-.15.21-.16.43-.18.58.06s0,.41-.2.55c-1.69,1.15-3.68,1.76-5.73,1.77"/>
        <path id="Path_32614" data-name="Path 32614" class="cls-8" d="m55.67,35.36c.01.4-.3.73-.69.74-.4.01-.73-.3-.74-.69-.01-.39.29-.72.68-.74.4-.01.74.29.76.69"/>
        <path id="Path_32615" data-name="Path 32615" class="cls-9" d="m45.44,36.09c-.38-.02-.69-.32-.71-.71,0-.4.33-.72.73-.72.39,0,.71.33.7.73s-.33.71-.73.7h0"/>
        <path id="Path_32616" data-name="Path 32616" class="cls-5" d="m47.47,29.53c-.07-.78.18-1.56.7-2.15,1.02-1.12,2.75-1.19,3.86-.18.72.66,1.04,1.65.83,2.61-.02.09-.04.18-.06.27-.04.41-.22.79-.5,1.08-1.14,1.16-3,1.17-4.15.03-.03-.03-.06-.06-.08-.09-.39-.43-.6-1-.59-1.58"/>
        <path id="Path_32617" data-name="Path 32617" class="cls-4" d="m47.48,29.53c.2,1.51,1.59,2.57,3.09,2.37,1.03-.14,1.89-.84,2.24-1.82.14.22-.02.41-.08.6-.43,1.24-1.7,1.99-2.99,1.77-1.16-.2-2.06-1.11-2.25-2.28-.03-.21-.16-.43,0-.64"/>
      </g>
    </g>
  </g>
  <path id="Path_79986" data-name="Path 79986" d="m16.93,72.26h-4.5v12.47h-2.33v-12.47h-4.51v-1.95h11.34v1.95Zm5.53,6.21c0-.34-.05-.68-.15-1-.1-.3-.25-.57-.46-.81-.2-.23-.46-.42-.75-.54-.33-.14-.67-.2-1.03-.19-.68-.04-1.35.2-1.84.67-.48.52-.78,1.18-.85,1.88h5.08Zm-5.14,1.32c.02.51.11,1.02.27,1.5.13.39.34.75.62,1.06.25.28.57.49.92.63.38.14.79.21,1.2.21.37,0,.74-.04,1.09-.14.28-.08.54-.19.8-.32.23-.12.42-.22.58-.32.13-.09.28-.14.44-.14.16,0,.31.07.4.2l.61.79c-.25.29-.54.55-.86.76-.32.21-.66.38-1.02.5-.36.13-.73.23-1.11.29-.37.05-.75.08-1.12.07-.67,0-1.34-.11-1.97-.35-.59-.23-1.13-.59-1.57-1.05-.46-.49-.82-1.08-1.04-1.72-.26-.76-.39-1.55-.38-2.35,0-.67.11-1.34.34-1.97.21-.59.54-1.14.96-1.6.43-.46.95-.83,1.52-1.08.64-.27,1.33-.41,2.03-.39.59,0,1.19.1,1.74.31.52.19.99.5,1.38.9.4.41.71.9.91,1.44.23.62.34,1.28.33,1.95.02.23-.02.46-.11.67-.09.12-.25.19-.4.17h-6.56Zm10.76-3.38c.27-.59.67-1.11,1.16-1.53.46-.37,1.04-.57,1.63-.56.21,0,.42.02.62.08.18.05.36.12.52.23l-.14,1.62c-.01.09-.06.17-.13.24-.07.05-.14.07-.22.06-.14,0-.29-.02-.43-.05-.19-.04-.39-.06-.59-.06-.27,0-.54.04-.8.13-.23.09-.44.22-.62.38-.19.18-.36.38-.49.61-.15.26-.28.54-.39.82v6.35h-2.15v-10.21h1.25c.17-.02.33.03.47.12.1.12.17.27.18.43l.12,1.34Zm7.05,0c.27-.59.67-1.11,1.16-1.53.46-.37,1.04-.57,1.63-.56.21,0,.42.02.62.08.18.05.36.12.52.23l-.14,1.62c-.01.09-.06.17-.13.24-.07.05-.15.07-.23.06-.14,0-.29-.02-.43-.05-.2-.04-.4-.06-.6-.06-.27,0-.54.04-.8.13-.23.09-.44.22-.62.38-.19.18-.36.38-.49.61-.15.26-.28.54-.39.82v6.35h-2.15v-10.21h1.25c.17-.02.33.03.47.12.1.12.17.27.18.43l.13,1.34Zm10.32,3.86c-.65.01-1.3.08-1.94.18-.44.07-.87.2-1.29.37-.28.11-.52.3-.71.54-.14.2-.22.44-.21.68,0,.21.03.42.12.62.07.16.18.31.32.42.14.11.31.19.48.24.2.05.4.08.61.07.5.01,1-.09,1.45-.31.44-.24.84-.55,1.18-.92v-1.89Zm-5.71-4.33c1.11-1.06,2.59-1.64,4.13-1.61.54-.01,1.07.09,1.57.29.44.18.83.45,1.14.81.32.36.56.78.72,1.24.17.51.25,1.05.24,1.59v6.49h-.96c-.16,0-.32-.02-.47-.1-.13-.09-.23-.23-.27-.38l-.2-.83c-.25.22-.5.43-.77.63-.25.18-.51.33-.79.46-.28.13-.57.23-.87.29-.34.07-.69.1-1.03.09-.39,0-.78-.05-1.16-.17-.34-.1-.66-.28-.93-.51-.27-.24-.48-.53-.62-.86-.16-.38-.23-.79-.22-1.2,0-.4.11-.8.31-1.15.26-.42.61-.76,1.04-1,.6-.34,1.24-.59,1.91-.74.96-.22,1.94-.33,2.93-.33v-.68c.05-.59-.12-1.17-.47-1.64-.36-.38-.86-.58-1.38-.54-.35,0-.71.04-1.04.16-.25.09-.5.2-.73.33-.21.12-.39.23-.55.33-.15.1-.33.16-.51.16-.13,0-.27-.04-.38-.12-.1-.08-.19-.17-.26-.29l-.39-.7Zm13.62,3.59c.55.04,1.09-.14,1.5-.51.34-.36.52-.84.5-1.33.03-.49-.16-.98-.5-1.33-.42-.36-.96-.53-1.5-.49-.54-.04-1.08.14-1.5.49-.35.35-.53.84-.5,1.33,0,.25.04.5.13.74.08.22.21.42.38.59.18.17.39.3.63.38.28.09.57.14.87.14Zm2.99,5.7c0-.2-.06-.4-.19-.55-.15-.15-.33-.26-.53-.32-.25-.08-.51-.14-.77-.17-.29-.04-.61-.06-.94-.08l-1.01-.05c-.34-.02-.68-.05-1-.1-.3.15-.56.35-.79.6-.2.22-.3.51-.3.81,0,.2.05.39.15.56.12.19.28.34.48.45.26.14.54.24.83.3.4.08.81.12,1.22.11.74.05,1.47-.1,2.13-.44.43-.22.7-.65.71-1.13Zm2.16-10.34v.8c0,.27-.16.43-.48.49l-1.02.17c.18.41.27.84.26,1.29,0,.47-.09.94-.29,1.37-.19.4-.47.76-.82,1.04-.37.3-.79.52-1.24.66-.5.15-1.03.23-1.55.22-.21,0-.42-.01-.63-.03-.2-.02-.4-.06-.6-.09-.17.09-.31.21-.43.36-.09.11-.14.25-.14.39,0,.21.1.4.29.49.24.12.5.2.77.23.36.05.72.08,1.09.09.41.01.82.04,1.24.07.42.03.83.09,1.24.16.38.07.75.2,1.09.38.31.17.57.42.77.72.21.35.31.76.29,1.17,0,.45-.12.89-.33,1.29-.23.44-.56.82-.96,1.12-.46.35-.98.62-1.53.79-.66.21-1.36.31-2.05.3-.67.01-1.34-.06-1.99-.22-.5-.12-.97-.32-1.41-.59-.35-.22-.63-.51-.84-.87-.18-.31-.28-.66-.28-1.02-.01-.45.15-.89.45-1.23.34-.36.77-.64,1.24-.8-.27-.12-.5-.31-.68-.55-.18-.27-.27-.6-.26-.92.01-.34.13-.67.33-.94.25-.36.6-.64.99-.83-.49-.26-.9-.65-1.2-1.12-.3-.49-.45-1.05-.44-1.63,0-.47.09-.94.29-1.37.19-.4.48-.76.83-1.04.37-.3.8-.52,1.26-.66.52-.16,1.05-.24,1.59-.23.8-.02,1.6.17,2.3.55h2.85Zm3.39,1.52c.27-.59.67-1.11,1.16-1.53.46-.37,1.04-.57,1.63-.56.21,0,.42.02.62.08.18.05.36.12.52.23l-.14,1.62c-.01.09-.06.17-.13.24-.07.05-.14.07-.22.06-.14,0-.29-.02-.43-.05-.19-.04-.39-.06-.59-.06-.27,0-.55.04-.81.14-.23.09-.44.22-.62.38-.19.18-.36.38-.49.61-.15.26-.28.54-.39.82v6.34h-2.15v-10.21h1.25c.17-.02.33.03.47.12.1.12.17.27.18.43l.13,1.34Zm13.63-1.89v10.21h-1.3c-.26.02-.5-.16-.55-.41l-.16-.95c-.21.22-.44.43-.68.62-.24.19-.49.35-.76.48-.27.14-.56.24-.86.31-.32.08-.65.11-.98.11-.51,0-1.01-.09-1.48-.29-.41-.18-.78-.45-1.08-.79-.3-.36-.52-.78-.66-1.23-.15-.51-.23-1.04-.23-1.58v-6.49h2.16v6.49c-.04.57.13,1.14.47,1.6.37.4.9.61,1.45.57.46,0,.92-.11,1.33-.33.43-.23.82-.54,1.16-.9v-7.45h2.15Zm4.29,1.35c.21-.22.44-.43.69-.62.24-.18.49-.34.76-.47.27-.14.56-.24.85-.31.32-.08.65-.11.98-.11.51,0,1.01.09,1.48.29.41.18.78.45,1.07.79.3.36.52.78.66,1.23.15.51.23,1.04.22,1.57v6.5h-2.15v-6.5c.04-.57-.13-1.14-.48-1.6-.37-.4-.9-.61-1.45-.57-.47,0-.93.11-1.34.33-.43.24-.82.54-1.16.9v7.44h-2.15v-10.21h1.3c.26-.02.5.15.56.41l.15.94Zm12.02,9.02c-.72.05-1.43-.21-1.96-.72-.49-.56-.74-1.28-.69-2.02v-5.95h-1.12c-.11,0-.23-.04-.31-.11-.09-.09-.14-.22-.13-.35v-.87l1.65-.24.47-2.95c.03-.11.09-.2.17-.28.09-.07.2-.11.32-.1h1.1v3.35h2.83v1.55h-2.83v5.8c-.02.3.08.61.27.84.19.19.45.3.72.29.15,0,.29-.02.43-.07.11-.04.21-.09.31-.14.09-.05.16-.1.23-.14.05-.04.12-.06.18-.07.13,0,.24.08.29.2l.64,1.05c-.35.3-.75.53-1.18.68-.45.16-.92.24-1.39.24h0Z"/>
</svg>