<svg width="1480" height="640" viewBox="0 0 1480 640" fill="none" xmlns="http://www.w3.org/2000/svg">
<path d="M1306.56 431V361.125H1325.25V373.375H1326C1327.29 369.042 1329.44 365.771 1332.44 363.562C1335.44 361.313 1338.88 360.188 1342.75 360.188C1343.75 360.188 1344.79 360.25 1345.88 360.375C1347 360.458 1348 360.625 1348.88 360.875V378C1347.96 377.708 1346.69 377.479 1345.06 377.312C1343.48 377.104 1342 377 1340.62 377C1337.83 377 1335.31 377.625 1333.06 378.875C1330.81 380.083 1329.04 381.792 1327.75 384C1326.5 386.167 1325.88 388.667 1325.88 391.5V431H1306.56Z" fill="#04385F"/>
<path d="M1263.62 432.375C1256.58 432.375 1250.48 430.875 1245.31 427.875C1240.19 424.833 1236.23 420.625 1233.44 415.25C1230.69 409.833 1229.31 403.542 1229.31 396.375C1229.31 389.125 1230.69 382.812 1233.44 377.438C1236.23 372.021 1240.19 367.812 1245.31 364.812C1250.48 361.771 1256.58 360.25 1263.62 360.25C1270.71 360.25 1276.81 361.771 1281.94 364.812C1287.1 367.812 1291.06 372.021 1293.81 377.438C1296.6 382.812 1298 389.125 1298 396.375C1298 403.542 1296.6 409.833 1293.81 415.25C1291.06 420.625 1287.1 424.833 1281.94 427.875C1276.81 430.875 1270.71 432.375 1263.62 432.375ZM1263.75 417.25C1266.96 417.25 1269.65 416.354 1271.81 414.562C1273.98 412.729 1275.6 410.229 1276.69 407.062C1277.81 403.896 1278.38 400.292 1278.38 396.25C1278.38 392.167 1277.81 388.562 1276.69 385.438C1275.6 382.313 1273.98 379.854 1271.81 378.062C1269.65 376.271 1266.96 375.375 1263.75 375.375C1260.5 375.375 1257.77 376.271 1255.56 378.062C1253.4 379.854 1251.75 382.313 1250.62 385.438C1249.54 388.562 1249 392.167 1249 396.25C1249 400.292 1249.54 403.896 1250.62 407.062C1251.75 410.229 1253.4 412.729 1255.56 414.562C1257.77 416.354 1260.5 417.25 1263.75 417.25Z" fill="#04385F"/>
<path d="M1224.5 361.125V375.75H1182.44V361.125H1224.5ZM1192 344.5H1211.31V409.5C1211.31 411.833 1211.83 413.563 1212.88 414.688C1213.92 415.771 1215.58 416.312 1217.88 416.312C1218.62 416.312 1219.46 416.25 1220.38 416.125C1221.29 416 1222.08 415.854 1222.75 415.688L1225.81 430.188C1223.69 430.812 1221.62 431.271 1219.62 431.562C1217.67 431.854 1215.73 432 1213.81 432C1206.85 432 1201.48 430.271 1197.69 426.812C1193.9 423.313 1192 418.396 1192 412.062V344.5Z" fill="#04385F"/>
<path d="M1136.81 432.312C1132.4 432.312 1128.42 431.542 1124.88 430C1121.38 428.417 1118.62 426.083 1116.62 423C1114.63 419.917 1113.62 416.083 1113.62 411.5C1113.62 407.583 1114.33 404.333 1115.75 401.75C1117.17 399.125 1119.1 397 1121.56 395.375C1124.02 393.75 1126.81 392.521 1129.94 391.688C1133.06 390.854 1136.38 390.271 1139.88 389.938C1143.92 389.563 1147.17 389.187 1149.62 388.812C1152.08 388.438 1153.88 387.875 1155 387.125C1156.17 386.333 1156.75 385.208 1156.75 383.75V383.438C1156.75 380.563 1155.83 378.333 1154 376.75C1152.21 375.167 1149.67 374.375 1146.38 374.375C1142.92 374.375 1140.15 375.146 1138.06 376.688C1136.02 378.187 1134.67 380.104 1134 382.438L1116.06 381C1116.98 376.75 1118.77 373.083 1121.44 370C1124.1 366.875 1127.54 364.479 1131.75 362.812C1136 361.104 1140.92 360.25 1146.5 360.25C1150.37 360.25 1154.08 360.708 1157.62 361.625C1161.17 362.542 1164.31 363.958 1167.06 365.875C1169.85 367.75 1172.06 370.188 1173.69 373.188C1175.31 376.187 1176.12 379.75 1176.12 383.875V431H1157.69V421.25H1157.19C1156.06 423.458 1154.56 425.396 1152.69 427.062C1150.81 428.687 1148.56 429.979 1145.94 430.938C1143.31 431.854 1140.27 432.312 1136.81 432.312ZM1142.38 418.938C1145.21 418.938 1147.71 418.375 1149.88 417.25C1152.08 416.083 1153.79 414.542 1155 412.625C1156.25 410.667 1156.88 408.479 1156.88 406.062V398.625C1156.29 399 1155.46 399.354 1154.38 399.688C1153.33 400.021 1152.17 400.313 1150.88 400.562C1149.58 400.812 1148.29 401.042 1147 401.25C1145.71 401.417 1144.54 401.583 1143.5 401.75C1141.21 402.083 1139.21 402.625 1137.5 403.375C1135.79 404.083 1134.46 405.063 1133.5 406.312C1132.58 407.521 1132.12 409.042 1132.12 410.875C1132.12 413.5 1133.08 415.5 1135 416.875C1136.92 418.25 1139.38 418.938 1142.38 418.938Z" fill="#04385F"/>
<path d="M1070.81 431V361.125H1089.5V373.375H1090.25C1091.54 369.042 1093.69 365.771 1096.69 363.562C1099.69 361.313 1103.13 360.188 1107 360.188C1108 360.188 1109.04 360.25 1110.12 360.375C1111.25 360.458 1112.25 360.625 1113.12 360.875V378C1112.21 377.708 1110.94 377.479 1109.31 377.312C1107.73 377.104 1106.25 377 1104.88 377C1102.08 377 1099.56 377.625 1097.31 378.875C1095.06 380.083 1093.29 381.792 1092 384C1090.75 386.167 1090.12 388.667 1090.12 391.5V431H1070.81Z" fill="#04385F"/>
<path d="M1062.38 361.125V375.75H1020.31V361.125H1062.38ZM1029.88 344.5H1049.19V409.5C1049.19 411.833 1049.71 413.563 1050.75 414.688C1051.79 415.771 1053.46 416.312 1055.75 416.312C1056.5 416.312 1057.33 416.25 1058.25 416.125C1059.17 416 1059.96 415.854 1060.62 415.688L1063.69 430.188C1061.56 430.812 1059.5 431.271 1057.5 431.562C1055.54 431.854 1053.6 432 1051.69 432C1044.73 432 1039.35 430.271 1035.56 426.812C1031.77 423.313 1029.88 418.396 1029.88 412.062V344.5Z" fill="#04385F"/>
<path d="M1015.56 381.062L997.875 382.125C997.417 379.917 996.187 378.021 994.188 376.438C992.188 374.813 989.5 374 986.125 374C983.125 374 980.604 374.625 978.562 375.875C976.563 377.125 975.562 378.792 975.562 380.875C975.562 382.542 976.208 383.979 977.5 385.188C978.833 386.354 981.104 387.271 984.312 387.938L997 390.438C1003.79 391.812 1008.85 394.042 1012.19 397.125C1015.52 400.208 1017.19 404.271 1017.19 409.312C1017.19 413.937 1015.85 417.979 1013.19 421.438C1010.52 424.854 1006.85 427.542 1002.19 429.5C997.521 431.417 992.167 432.375 986.125 432.375C976.875 432.375 969.5 430.437 964 426.562C958.542 422.688 955.354 417.437 954.438 410.812L973.375 409.812C974 412.646 975.417 414.792 977.625 416.25C979.833 417.708 982.667 418.438 986.125 418.438C989.5 418.438 992.229 417.771 994.312 416.438C996.437 415.104 997.5 413.417 997.5 411.375C997.5 407.917 994.5 405.583 988.5 404.375L976.438 401.875C969.646 400.5 964.583 398.146 961.25 394.812C957.917 391.479 956.25 387.208 956.25 382C956.25 377.5 957.479 373.625 959.938 370.375C962.396 367.125 965.833 364.625 970.25 362.875C974.708 361.125 979.917 360.25 985.875 360.25C994.708 360.25 1001.65 362.125 1006.69 365.875C1011.77 369.583 1014.73 374.646 1015.56 381.062Z" fill="#04385F"/>
<path d="M917.25 432.375C910.083 432.375 903.896 430.917 898.688 428C893.479 425.083 889.479 420.937 886.688 415.562C883.938 410.146 882.562 403.75 882.562 396.375C882.562 389.208 883.938 382.917 886.688 377.5C889.479 372.083 893.396 367.854 898.438 364.812C903.521 361.771 909.479 360.25 916.312 360.25C920.937 360.25 925.25 361 929.25 362.5C933.25 363.958 936.75 366.167 939.75 369.125C942.75 372.042 945.083 375.729 946.75 380.188C948.417 384.604 949.25 389.792 949.25 395.75V401H890.25V389.062H939.875L930.875 392.188C930.875 388.646 930.333 385.562 929.25 382.938C928.167 380.313 926.542 378.292 924.375 376.875C922.25 375.417 919.604 374.688 916.438 374.688C913.271 374.688 910.583 375.417 908.375 376.875C906.208 378.333 904.542 380.313 903.375 382.812C902.208 385.312 901.625 388.188 901.625 391.438V399.875C901.625 403.667 902.292 406.917 903.625 409.625C904.958 412.292 906.813 414.354 909.188 415.812C911.604 417.229 914.375 417.938 917.5 417.938C919.667 417.938 921.625 417.625 923.375 417C925.125 416.375 926.625 415.458 927.875 414.25C929.167 413.042 930.125 411.583 930.75 409.875L948.625 411.062C947.75 415.354 945.917 419.104 943.125 422.312C940.375 425.479 936.812 427.958 932.438 429.75C928.063 431.5 923 432.375 917.25 432.375Z" fill="#04385F"/>
<path d="M828.75 390.625V431H809.438V337.875H828.125V373.562H829C830.583 369.438 833.125 366.187 836.625 363.812C840.167 361.438 844.583 360.25 849.875 360.25C854.708 360.25 858.937 361.313 862.562 363.438C866.187 365.521 869 368.521 871 372.438C873.042 376.354 874.062 381.063 874.062 386.562V431H854.687V390C854.687 385.708 853.583 382.354 851.375 379.938C849.208 377.521 846.146 376.312 842.188 376.312C839.521 376.312 837.187 376.896 835.188 378.062C833.188 379.187 831.604 380.813 830.438 382.938C829.313 385.062 828.75 387.625 828.75 390.625Z" fill="#04385F"/>
<path d="M769.875 432.375C762.75 432.375 756.625 430.854 751.5 427.812C746.375 424.729 742.437 420.5 739.688 415.125C736.938 409.708 735.562 403.458 735.562 396.375C735.562 389.208 736.938 382.917 739.688 377.5C742.479 372.083 746.438 367.854 751.562 364.812C756.687 361.771 762.792 360.25 769.875 360.25C775.958 360.25 781.271 361.354 785.812 363.562C790.396 365.771 794.021 368.875 796.688 372.875C799.354 376.875 800.813 381.583 801.062 387H782.812C782.479 384.667 781.771 382.625 780.688 380.875C779.604 379.125 778.167 377.771 776.375 376.812C774.583 375.854 772.5 375.375 770.125 375.375C767.125 375.375 764.5 376.188 762.25 377.812C760.042 379.396 758.312 381.75 757.062 384.875C755.854 387.958 755.25 391.708 755.25 396.125C755.25 400.542 755.854 404.333 757.062 407.5C758.312 410.667 760.042 413.083 762.25 414.75C764.5 416.417 767.125 417.25 770.125 417.25C773.458 417.25 776.271 416.208 778.562 414.125C780.854 412 782.271 409.083 782.812 405.375H801.062C800.771 410.708 799.333 415.417 796.75 419.5C794.167 423.542 790.604 426.708 786.062 429C781.521 431.25 776.125 432.375 769.875 432.375Z" fill="#04385F"/>
<path d="M693.562 431V361.125H712.25V373.375H713C714.292 369.042 716.438 365.771 719.438 363.562C722.437 361.313 725.875 360.188 729.75 360.188C730.75 360.188 731.792 360.25 732.875 360.375C734 360.458 735 360.625 735.875 360.875V378C734.958 377.708 733.687 377.479 732.062 377.312C730.479 377.104 729 377 727.625 377C724.833 377 722.312 377.625 720.062 378.875C717.812 380.083 716.042 381.792 714.75 384C713.5 386.167 712.875 388.667 712.875 391.5V431H693.562Z" fill="#04385F"/>
<path d="M639.937 432.25C631.687 432.25 624.271 430.375 617.687 426.625C611.104 422.875 605.896 417.437 602.062 410.312C598.229 403.188 596.312 394.583 596.312 384.5C596.312 374.333 598.229 365.687 602.062 358.562C605.896 351.396 611.104 345.958 617.687 342.25C624.271 338.5 631.687 336.625 639.937 336.625C648.187 336.625 655.604 338.5 662.187 342.25C668.771 345.958 673.958 351.396 677.75 358.562C681.583 365.687 683.5 374.333 683.5 384.5C683.5 394.625 681.583 403.25 677.75 410.375C673.958 417.5 668.771 422.938 662.187 426.688C655.604 430.396 648.187 432.25 639.937 432.25ZM639.937 414.875C644.729 414.875 648.896 413.708 652.437 411.375C655.979 409.042 658.708 405.625 660.625 401.125C662.583 396.583 663.562 391.042 663.562 384.5C663.562 377.917 662.583 372.354 660.625 367.812C658.708 363.271 655.979 359.833 652.437 357.5C648.896 355.167 644.729 354 639.937 354C635.187 354 631.042 355.167 627.5 357.5C623.958 359.833 621.187 363.271 619.187 367.812C617.229 372.354 616.25 377.917 616.25 384.5C616.25 391.042 617.229 396.583 619.187 401.125C621.187 405.625 623.958 409.042 627.5 411.375C631.042 413.708 635.187 414.875 639.937 414.875Z" fill="#04385F"/>
<path d="M1075.12 303L1056.12 233.125H1075.75L1086.56 280.125H1087.19L1098.5 233.125H1117.69L1129.12 279.812H1129.75L1140.37 233.125H1159.94L1140.94 303H1120.5L1108.5 259.062H1107.62L1095.62 303H1075.12Z" fill="#04385F"/>
<path d="M1020.25 304.375C1013.21 304.375 1007.1 302.875 1001.94 299.875C996.813 296.833 992.854 292.625 990.062 287.25C987.313 281.833 985.938 275.542 985.938 268.375C985.938 261.125 987.313 254.812 990.062 249.438C992.854 244.021 996.813 239.812 1001.94 236.812C1007.1 233.771 1013.21 232.25 1020.25 232.25C1027.33 232.25 1033.44 233.771 1038.56 236.812C1043.73 239.812 1047.69 244.021 1050.44 249.438C1053.23 254.812 1054.62 261.125 1054.62 268.375C1054.62 275.542 1053.23 281.833 1050.44 287.25C1047.69 292.625 1043.73 296.833 1038.56 299.875C1033.44 302.875 1027.33 304.375 1020.25 304.375ZM1020.38 289.25C1023.58 289.25 1026.27 288.354 1028.44 286.562C1030.6 284.729 1032.23 282.229 1033.31 279.062C1034.44 275.896 1035 272.292 1035 268.25C1035 264.167 1034.44 260.562 1033.31 257.437C1032.23 254.312 1030.6 251.854 1028.44 250.062C1026.27 248.271 1023.58 247.375 1020.38 247.375C1017.13 247.375 1014.4 248.271 1012.19 250.062C1010.02 251.854 1008.37 254.312 1007.25 257.437C1006.17 260.562 1005.62 264.167 1005.62 268.25C1005.62 272.292 1006.17 275.896 1007.25 279.062C1008.37 282.229 1010.02 284.729 1012.19 286.562C1014.4 288.354 1017.13 289.25 1020.38 289.25Z" fill="#04385F"/>
<path d="M977.375 209.875V303H958.062V209.875H977.375Z" fill="#04385F"/>
<path d="M950.312 233.125V247.75H907.25V233.125H950.312ZM917.125 303V228.062C917.125 223.021 918.104 218.833 920.062 215.5C922.062 212.167 924.771 209.667 928.188 208C931.646 206.333 935.563 205.5 939.938 205.5C942.937 205.5 945.667 205.75 948.125 206.25C950.625 206.708 952.458 207.104 953.625 207.438L950.25 221.938C949.458 221.729 948.521 221.521 947.438 221.312C946.354 221.104 945.208 221 944 221C941.167 221 939.187 221.667 938.062 223C936.938 224.292 936.375 226.125 936.375 228.5V303H917.125Z" fill="#04385F"/>
<path d="M859.812 282.875L859.875 259.687H862.687L885 233.125H907.25L877.25 268.312H872.562L859.812 282.875ZM842.312 303V209.875H861.625V303H842.312ZM885.875 303L865.375 272.625L878.25 258.875L908.562 303H885.875Z" fill="#04385F"/>
<path d="M794.188 303V233.125H812.875V245.375H813.625C814.917 241.042 817.063 237.771 820.062 235.562C823.062 233.313 826.5 232.188 830.375 232.188C831.375 232.188 832.417 232.25 833.5 232.375C834.625 232.458 835.625 232.625 836.5 232.875V250C835.583 249.708 834.312 249.479 832.688 249.312C831.104 249.104 829.625 249 828.25 249C825.458 249 822.937 249.625 820.688 250.875C818.438 252.083 816.667 253.792 815.375 256C814.125 258.167 813.5 260.667 813.5 263.5V303H794.188Z" fill="#04385F"/>
<path d="M751.25 304.375C744.208 304.375 738.104 302.875 732.937 299.875C727.812 296.833 723.854 292.625 721.062 287.25C718.312 281.833 716.938 275.542 716.938 268.375C716.938 261.125 718.312 254.812 721.062 249.438C723.854 244.021 727.812 239.812 732.937 236.812C738.104 233.771 744.208 232.25 751.25 232.25C758.333 232.25 764.437 233.771 769.562 236.812C774.729 239.812 778.687 244.021 781.437 249.438C784.229 254.812 785.625 261.125 785.625 268.375C785.625 275.542 784.229 281.833 781.437 287.25C778.687 292.625 774.729 296.833 769.562 299.875C764.437 302.875 758.333 304.375 751.25 304.375ZM751.375 289.25C754.583 289.25 757.271 288.354 759.437 286.562C761.604 284.729 763.229 282.229 764.312 279.062C765.437 275.896 766 272.292 766 268.25C766 264.167 765.437 260.562 764.312 257.437C763.229 254.312 761.604 251.854 759.437 250.062C757.271 248.271 754.583 247.375 751.375 247.375C748.125 247.375 745.396 248.271 743.187 250.062C741.021 251.854 739.375 254.312 738.25 257.437C737.167 260.562 736.625 264.167 736.625 268.25C736.625 272.292 737.167 275.896 738.25 279.062C739.375 282.229 741.021 284.729 743.187 286.562C745.396 288.354 748.125 289.25 751.375 289.25Z" fill="#04385F"/>
<path d="M618.937 303L592.312 209.875H613.812L629.25 274.562H630.062L647 209.875H665.437L682.375 274.75H683.187L698.625 209.875H720.125L693.437 303H674.25L656.625 242.125H655.875L638.187 303H618.937Z" fill="#04385F"/>
<path d="M354.832 276.683L360.538 287.948L359.342 289.144L350.731 280.784L354.832 276.683Z" fill="#76B5E0"/>
<path fill-rule="evenodd" clip-rule="evenodd" d="M314 128H326V144.077L346.283 151.332C369.967 159.802 392.949 170.121 415.016 182.193L437.191 194.324L457.599 173.916L466.084 182.401L444.445 204.041L447.319 212.963C458.702 248.31 474.148 282.216 493.347 314H512V326H494.455L479.094 369.434L455.768 455.642L435.097 460.957C396.477 470.887 359.666 486.806 326 508.123V512H314V507.22C278.543 479.763 236.412 462.268 191.965 456.521L177.181 471.305L168.696 462.82L182.781 448.735L178.858 430.061C170.982 392.571 155.435 357.146 133.225 326H128V314H133.231C160.297 276.391 177.89 232.762 184.461 186.82L184.848 184.112L189.665 183.666C233.34 179.627 275.675 166.567 314 145.341V128ZM202.539 445.947C242.755 452.568 280.91 468.411 314 492.244V473.216L290.911 456.231C282.445 450.003 272.889 445.414 262.735 442.701L217.795 430.692L202.539 445.947ZM223.816 419.218L220.283 411.232L220.205 411.31L203.692 365.949L182.106 324.487L209.836 263.925L220.609 229.096L250.516 259.003L247.951 276.471L259.312 281.643C259.366 281.313 259.417 280.983 259.466 280.652L261.092 269.578L280.603 289.089L289.027 280.543L272.597 264.113C290.854 263.844 308.123 255.788 320.058 241.986L320.416 242.326C326.029 247.645 334.392 254.783 343.006 258.57C346.645 260.171 350.671 261.323 354.722 262.155L365.634 251.672C359.394 251.031 352.909 249.816 347.836 247.585C340.856 244.516 333.312 238.102 327.751 232.737C327.142 232.15 326.558 231.575 326 231.019V192.603L349.031 206.751C357.495 211.95 366.707 215.817 376.346 218.216L414.942 227.823L416.766 231.72L417.01 231.476L428.441 264.125L454.962 322.358L435.039 366.132L418.078 409.592L417.67 409.185L413.333 419.221L370.63 430.485C358.819 433.601 347.703 438.922 337.869 446.167L326 454.912V413.269L369.867 395.097L360.505 385.986L326 400.28L326 352.404L319.555 346.132L314 351.776L314 397.517L303.919 390.42C298.125 386.34 291.71 383.263 284.945 381.296L275.035 391.364C282.944 392.589 290.464 395.623 297.01 400.232L314 412.193V457.525L298.401 446.05C288.665 438.888 277.675 433.611 265.998 430.49L223.816 419.218ZM326 470.61V494.005C358.966 474.008 394.715 458.95 432.109 449.335L439.062 447.547L421.62 430.106L373.853 442.706C363.583 445.415 353.917 450.042 345.366 456.342L326 470.61ZM427.836 419.351L447.764 439.279L467.629 365.861L481.727 326H467.19L446.687 371.051L427.836 419.351ZM465.043 314H479.389C461.412 283.226 446.827 250.582 435.896 216.641L434.909 213.576L426.928 221.558L440.181 259.408L465.043 314ZM416.363 215.152L428.349 203.166L409.257 192.721C387.741 180.95 365.334 170.889 342.242 162.631L326 156.822V177.77L355.647 195.982C363.006 200.503 371.017 203.865 379.399 205.952L416.363 215.152ZM314 175.391V158.982C279.328 177.284 241.657 189.241 202.767 194.283L222.749 214.264L255.145 205.567C261.978 203.732 268.553 201.044 274.715 197.566L314 175.391ZM314 189.904L280.928 208.572C273.842 212.572 266.28 215.663 258.422 217.773L233.065 224.581L260.604 252.12H271.652C287.114 252.12 301.774 245.239 311.653 233.345L314 230.516V189.904ZM210.505 218.991L194.003 202.49C186.351 242.412 170.649 280.354 147.865 314H173.007L198.004 259.408L210.505 218.991ZM168.644 326L192.099 371.051L210.345 421.171L192.914 438.602L190.601 427.593C182.967 391.252 168.422 356.769 147.811 326H168.644Z" fill="#76B5E0"/>
<path fill-rule="evenodd" clip-rule="evenodd" d="M217.061 279.988L198.893 323.312L236.306 407.902L319.312 323.568L402.325 404.358L439.577 318.177L402.325 238.609L369.47 270.173L392.538 315.708L385.493 336.836L319.327 272.592L252.74 340.151L245.423 323.568L252.74 296.229L217.061 279.988Z" fill="#0077C8"/>
</svg>
